<svg width="658" height="505" viewBox="0 0 658 505" fill="none" xmlns="http://www.w3.org/2000/svg">
<path d="M526.7 95.6878C505.2 96.2878 467.4 95.2878 462.6 71.0878C457.8 46.8878 482.6 12.0878 507.8 0.187775L526.7 95.6878Z" fill="#0D005C" fill-opacity="0.15"/>
<path d="M655.6 269.285C655.6 269.285 633 279.785 608.8 276.085C584.6 272.385 581.2 260.385 582.5 251.985C583.6 244.985 590.7 233.285 614.8 236.985C639 240.785 655.6 269.285 655.6 269.285Z" fill="#0D005C" fill-opacity="0.15"/>
<path d="M658 265.585C658 265.585 632.9 271.885 609.7 264.085C586.5 256.285 585.3 243.785 588.1 235.785C590.4 229.085 599.4 218.785 622.5 226.585C645.7 234.485 658 265.585 658 265.585Z" fill="#6CCA87"/>
<path d="M656.2 264.885C613.3 238.085 588.1 238.785 588.1 238.785L587.2 239.385C586.2 247.185 589.9 257.185 609.8 263.985C631.1 271.185 654 267.385 657.6 265.785C657.1 265.485 656.7 265.185 656.2 264.885Z" fill="#00A349"/>
<path d="M0.599976 272.734C0.599976 272.734 27.6 256.534 54.3 263.134C81 269.734 83.6 283.534 81.3 292.734C79.4 300.434 62.9 322.834 36.2 316.234C9.49998 309.634 0.599976 272.734 0.599976 272.734Z" fill="#0D005C" fill-opacity="0.15"/>
<path d="M0 271.134C0 271.134 26.2 253.634 53.2 259.034C80.2 264.434 83.5 277.934 81.6 287.334C80.1 295.134 71.5 308.034 44.6 302.634C17.5 297.234 0 271.134 0 271.134Z" fill="#6CCA87"/>
<path d="M0 271.134C0 271.134 17.5 297.334 44.5 302.634C71.5 307.934 80 295.134 81.5 287.334C81.8 286.034 81.9 284.634 81.9 283.234C65 274.534 20.4 271.834 0 271.134Z" fill="#00A349"/>
<path fill-rule="evenodd" clip-rule="evenodd" d="M202.13 190.5C198.13 163.5 287.63 118 287.63 118L369.105 302.816L629.008 345.346C629.008 345.346 648.025 345.928 643.587 371.531C639.149 397.135 470 514.5 427.434 503.318C396.115 495.091 382.227 470.648 358.354 428.631C349.78 413.542 339.919 396.186 327.5 376.5C318.656 362.481 312.927 351.542 309.456 343.021L256.13 280C256.13 280 206.13 217.5 202.13 190.5Z" fill="#0D005C" fill-opacity="0.15"/>
<path d="M526.7 95.6878C554.4 86.5878 572.1 62.1878 567.3 37.9878C562.5 13.7878 536.8 -1.91223 507.8 0.187769L526.7 95.6878Z" fill="#475E1F"/>
<path d="M526.4 93.8878C545.3 86.5878 556.5 64.3878 551.9 41.0878C547.3 17.7878 528.5 1.48776 508.2 1.98776L526.4 93.8878Z" fill="#ECFFC9"/>
<path d="M525.9 91.5878C543.9 84.6878 554.5 63.5878 550.1 41.3878C545.7 19.1878 527.8 3.78777 508.6 4.18777L525.9 91.5878Z" fill="#DAFF96"/>
<path d="M520.8 47.1878C520.4 45.2878 518.5 43.9878 516.6 44.3878L518 51.3878C519.9 50.9878 521.2 49.1878 520.8 47.1878Z" fill="#ECFFC9"/>
<path d="M551.2 41.1878L519 47.5878" stroke="#ECFFC9" stroke-width="3" stroke-miterlimit="10"/>
<path d="M544.8 27.4878L518 46.3878" stroke="#ECFFC9" stroke-width="3" stroke-miterlimit="10"/>
<path d="M531.2 9.98776L517.2 45.5878" stroke="#ECFFC9" stroke-width="3" stroke-miterlimit="10"/>
<path d="M550.5 56.5878L518.6 49.3878" stroke="#ECFFC9" stroke-width="3" stroke-miterlimit="10"/>
<path d="M544.7 77.8878L518.2 50.3878" stroke="#ECFFC9" stroke-width="3" stroke-miterlimit="10"/>
<path d="M517.3 47.8878L531.9 89.5878" stroke="#ECFFC9" stroke-width="3" stroke-miterlimit="10"/>
<path d="M517.3 47.8878L514.9 3.78777" stroke="#ECFFC9" stroke-width="3" stroke-miterlimit="10"/>
<path d="M162.7 101.985C162.7 101.985 190.4 97.3849 210.4 111.585C230.4 125.785 228.1 138.085 223.2 144.985C219.1 150.785 198.1 163.985 178.1 149.785C158.1 135.585 162.7 101.985 162.7 101.985Z" fill="#0D005C" fill-opacity="0.15"/>
<path d="M157.8 101.485C157.8 101.485 190.3 94.4849 210.9 107.785C231.5 121.085 229.8 133.385 225.2 140.585C221.4 146.585 210.1 154.485 189.4 141.185C168.8 127.885 157.8 101.485 157.8 101.485Z" fill="#6CCA87"/>
<path d="M158.2 103.085C159.9 109.185 171.8 129.785 189.5 141.185C210.2 154.485 221.4 146.485 225.3 140.585C215.8 113.785 163.1 104.085 158.2 103.085Z" fill="#00A349"/>
<path d="M479.7 65.6849L633.8 309.485C652.6 339.285 643.7 378.685 614 397.485L504.6 466.685C474.8 485.485 435.4 476.585 416.6 446.885L262.4 202.985C243.6 173.185 252.5 133.785 282.2 114.985L391.6 45.7849C421.5 27.0849 460.9 35.9849 479.7 65.6849Z" fill="#F0DAB1"/>
<path d="M474.9 78.5849L620.1 308.285C637.5 335.885 629.3 372.385 601.7 389.785L502.8 452.285C475.2 469.685 438.7 461.485 421.3 433.885L276.1 204.285C258.7 176.685 266.9 140.185 294.5 122.785L393.4 60.2849C421 42.7849 457.5 51.0849 474.9 78.5849Z" fill="#D2B678"/>
<path d="M396.4 122.885L421.5 166.785C422.7 168.985 424.9 169.985 426.8 169.285L499.3 144.485C502.6 143.385 504.2 138.285 502.5 134.285L490.1 103.585C489.1 101.085 487.1 99.6849 485 99.9849L399.9 111.685C395.9 112.085 393.9 118.485 396.4 122.885Z" fill="#0D5501"/>
<path d="M495.4 273.985C496.5 275.285 497.5 275.185 497.7 276.785C497.9 278.385 496.1 278.785 497.2 280.285C498.3 281.785 499.9 283.685 501.7 283.585C503.5 283.485 501.9 281.485 503.7 281.885C505.5 282.385 504.6 284.285 506.8 284.485C508.9 284.685 507.7 282.285 509.8 282.785C511.9 283.285 510.6 285.185 512.5 285.585C514.4 285.985 515.7 286.085 515.7 287.585C515.7 289.085 513.7 291.885 516.5 290.285C519.2 288.685 520.1 287.985 519.9 289.285C519.7 290.585 521.7 294.585 523.1 292.885C524.6 291.285 523.2 290.285 524.1 288.585C525 286.985 525.5 287.785 527.1 288.585C528.7 289.385 527.5 291.885 529.7 291.585C531.9 291.185 532 288.885 533.8 289.585C535.6 290.285 535 291.785 536.2 292.385C537.5 292.985 538.2 293.185 540.1 292.985C542 292.785 541.8 292.185 542.2 293.585C542.6 294.985 541.8 295.085 544.2 294.685C546.6 294.285 548.5 295.185 548.8 293.785C549.1 292.485 548.8 292.785 550.1 294.385C551.4 295.985 551.2 296.985 552.8 295.685C554.4 294.385 553.1 293.385 553.1 292.185C553 290.985 553.6 293.085 554.1 290.685C554.5 288.185 551.1 289.485 551.5 287.985C551.9 286.485 553.8 285.985 554.8 284.685C555.8 283.385 554.6 278.685 552.2 276.885C549.8 275.085 549.1 269.685 549.1 269.685L516.6 261.285L506.1 264.185C506 264.285 493.1 271.185 495.4 273.985Z" fill="#267240"/>
<path d="M549.2 230.185C549.2 230.185 552.4 233.385 551 234.585C549.6 235.785 552 235.785 552.6 236.485C553.2 237.185 552.6 239.085 552.6 239.085C552.6 239.085 559.2 237.085 559.1 239.085C559 241.085 559.2 242.085 559.2 242.085C559.2 242.085 559.5 240.085 560.7 239.485C561.9 238.885 564.2 238.385 564.2 239.285C562.6 240.885 563.3 241.385 563.3 241.385C563.3 241.385 564.4 240.485 565.4 240.085C566.4 239.685 566.8 240.085 567.1 240.885C567.4 241.585 571.4 243.385 568.7 245.085C566.4 245.085 563.9 245.485 563.2 247.085C562.5 248.685 565.5 249.785 565.2 250.385C565 250.985 568.2 249.385 568.4 250.985C568.6 252.585 571.9 253.085 569.8 253.585C567.8 254.185 565.9 254.285 566.4 255.085C566.9 255.885 570.4 254.085 569.5 256.685C568.6 259.285 567.3 261.585 567.3 261.585C567.3 261.585 567.7 263.785 567.5 265.085C567.3 266.385 571.9 266.885 569.6 268.085C567.3 269.285 562.7 270.185 562.7 270.185L536.3 262.485L534.1 247.785L537.4 235.585L549.2 230.185Z" fill="#70C19B"/>
<path d="M483.6 263.185C483.6 263.185 480.9 259.785 482.2 258.585C483.5 257.385 482 255.885 483.9 255.685C485.8 255.485 486.6 255.985 486.5 254.685C486.4 253.385 484.5 251.385 485.6 250.685C486.8 249.985 488.1 249.885 488.2 248.185C488.3 246.485 489.6 245.485 491 245.785C492.3 246.085 491.8 248.185 492.9 246.785C494 245.385 491.1 243.185 492.5 242.785C493.9 242.385 494.7 243.185 496.3 242.585C497.9 241.985 496.2 239.285 498.9 237.485C501.5 235.685 501 233.985 501.7 233.785C502.5 233.585 504.2 231.985 504.8 233.185C505.4 234.385 506.2 235.185 506.7 234.585C507.2 233.985 506.6 233.285 507.6 231.885C508.6 230.485 508.6 232.885 509.9 231.885C511.3 230.985 510.3 229.885 511 229.785C511.7 229.685 512.1 231.785 513.5 230.985C514.9 230.185 515.2 228.285 515.7 228.985C516.2 229.685 515.8 231.185 516.8 231.385C517.8 231.685 519.6 230.985 520.8 230.985C522 230.885 523.6 230.785 524.3 231.385C525 231.985 525.5 234.085 527.3 233.585C529.1 233.085 528.4 231.485 529.1 233.085C529.8 234.685 530.5 235.985 530.5 235.985C530.5 235.985 529.5 232.785 531.3 232.285C533.1 231.785 534.7 230.485 535.4 232.185C536.2 233.885 537 235.485 537.8 234.485C538.6 233.585 538.3 230.785 539.4 230.485C540.5 230.185 543.7 230.785 544.4 229.185C545.1 227.585 544.2 227.485 545.8 227.385C547.4 227.385 548.3 228.485 549.1 230.185C549.9 231.885 549.4 229.785 549.9 231.885C550.3 233.985 546.6 232.485 546.6 232.485C546.6 232.485 545.6 236.385 544.1 235.685C542.5 234.985 540.7 235.785 540.7 235.785L541 239.685L537.4 243.985L521.5 237.185L506.5 246.485L489.3 262.285L483.6 263.185Z" fill="#78CA5A"/>
<path d="M483.7 271.685C483.7 271.685 482.4 263.585 484 260.985C485.6 258.285 487.9 261.685 489.1 260.285C490.3 258.885 488.5 258.285 490 257.085C491.5 255.885 486.1 255.585 488.7 251.085C491.3 246.485 491.8 247.785 495.2 249.985C498.6 252.185 498.5 251.385 498 248.285C499.1 247.785 500.8 248.585 501.4 248.085C499.3 244.985 497.5 247.185 497 245.285C496.5 243.385 500 236.185 502.2 236.285C504.4 236.385 503.5 241.385 506.4 238.785C509.3 236.085 504.8 235.585 509 234.385C513.3 233.185 512.1 237.685 512.8 237.385C513.4 236.985 512.9 233.185 516.6 232.685C520.3 232.185 519.1 237.085 521.9 236.685C524.7 236.285 522.2 232.585 524.8 233.285C527.4 233.985 523.7 240.585 529.1 239.585C534.5 238.585 532.5 238.785 536.3 241.085C540 243.285 542.6 243.385 541.5 245.285C540.4 247.285 534.8 250.985 536 255.285C537.2 259.585 535.5 261.985 538.2 262.585C521.5 261.985 510.7 263.285 510.7 263.285C510.7 263.285 506.8 268.385 505.5 270.385C503 272.685 501.7 273.285 501.7 273.285C501.7 273.285 504.4 269.785 501.3 269.785C498.2 269.785 495.8 267.685 493.2 268.185C490.6 268.685 492.5 272.385 491.7 273.885C490.9 275.385 488.1 275.585 486.8 272.185C485.7 272.685 483.2 275.185 483.7 271.685Z" fill="#26472C"/>
<path d="M550.3 270.485C550.3 270.485 550.4 272.785 551.3 273.685C552.2 274.485 555.2 274.285 554.3 275.485C553.4 276.685 553.2 276.485 553.7 278.285C554.2 280.085 555.6 282.685 556.5 282.985C557.4 283.285 558.6 282.985 557.8 285.185C557.1 287.485 556.3 288.485 558.3 287.785C560.3 287.085 560.1 284.785 560.9 285.685C561.7 286.585 563.5 290.885 562 292.985C560.5 295.085 559.1 295.985 557.4 295.785C558.4 297.685 558.2 299.685 560.3 298.985C562.4 298.285 562.7 298.585 564.1 298.485C565.6 298.385 565.3 296.485 566.3 295.685C567.3 294.885 564.8 293.685 566.3 292.885C567.9 292.185 568 294.085 569.6 292.785C571.2 291.485 571.7 292.585 572.6 291.585C573.4 290.485 571.3 290.585 570.8 288.985C570.2 287.385 574.6 288.185 574.3 289.785C577.1 291.385 577.6 291.885 576.7 292.985C578.8 293.585 582.3 293.185 582.5 291.185C580.2 290.485 577.6 286.885 576.2 284.385C574.8 281.885 575.4 282.085 572.6 280.885C569.8 279.385 550.3 270.485 550.3 270.485Z" fill="#305C37"/>
<path d="M573.6 275.485C573.6 275.485 555.1 267.685 554.1 266.685C553.1 265.685 560.6 251.085 562.3 249.385C559 252.685 552.9 266.285 551.8 266.285C550.7 266.185 543.2 264.285 542.9 263.485C542.7 262.585 541 249.385 542.4 247.085C541.5 247.685 541.5 247.685 541.5 247.685C541.5 247.685 539.4 257.085 541.2 262.985C538.5 262.585 534.6 262.285 532.4 259.185C530.3 256.085 527.8 254.385 527.9 245.785C527 250.485 527.4 255.685 529.6 258.485C531.9 261.285 530.9 261.085 530.9 261.085C530.9 261.085 525 260.385 523.6 259.085C522.2 257.885 519.5 256.385 519.5 251.785C519.9 256.585 520.3 258.685 521.6 259.485C519.2 258.685 515.5 259.185 512.8 247.685C511.7 245.185 510.7 240.785 510.7 240.785C510.7 240.785 510.4 244.885 510.7 246.085C511 247.285 512 248.285 513.2 252.385C514.3 256.485 515 258.885 516.7 259.485C513.4 259.685 511.8 259.585 510.5 258.985C509.2 258.385 504.3 253.185 503.4 249.985C504.4 253.685 506.9 257.785 508.5 259.185C504.8 260.385 501.5 261.185 498.8 262.485C506.1 261.585 509.5 261.485 510.7 261.885C505.9 264.385 501 266.485 500.1 269.285C506.1 265.185 509.9 263.585 513.9 262.985C518 262.385 522.5 262.785 526.9 264.885C523.5 265.685 520.2 266.385 518.2 267.685C524.5 266.085 531 265.585 534.2 266.685C530.5 269.185 527.6 269.285 526.5 275.285C529.2 271.085 532.6 268.285 537.3 268.085C542 267.885 557.5 274.885 557.5 274.885C557.5 274.885 568.3 278.785 572.8 281.185" fill="#C2E4A0"/>
<path d="M558.1 271.785C558.6 270.685 558.2 270.785 561 269.785C563.7 268.785 564.8 270.485 566.5 268.785C568.2 267.085 567.2 267.785 568.2 267.085C569.2 266.385 571 268.685 572.1 267.885C573.3 267.185 572.9 265.485 573.8 265.585C574.7 265.785 575 267.485 576.4 267.485C577.8 267.485 577.8 270.985 576.8 271.485C575.9 271.985 578.1 271.385 577.1 273.585C576.1 275.785 577.2 276.985 576 277.985C574.8 278.985 577.1 279.085 575.4 280.785C573.7 282.485 576.2 283.185 572.9 283.685C569.6 284.185 568.2 284.085 567.9 284.685C567.7 285.285 566.6 283.085 566.3 283.985C566 284.885 566.8 286.185 565.1 286.385C563.4 286.585 563.7 284.685 563.7 284.685C563.7 284.685 568 282.285 567.3 279.785C565.3 279.385 562.9 278.685 562.9 277.185C562.9 275.685 561.8 277.485 559.5 276.385C557.3 275.385 558.1 271.785 558.1 271.785Z" fill="#78CA5A"/>
<path d="M542 254.785C541.9 256.285 542.6 256.785 541.7 257.985C540.8 259.085 539.5 258.185 539.2 259.785C538.9 261.385 538.9 263.585 540 264.585C541.2 265.585 541.4 263.385 542.3 264.785C543.1 266.185 541.5 266.785 542.6 268.285C543.8 269.685 544.5 267.485 545.5 269.085C546.5 270.685 544.5 271.085 545.5 272.485C546.4 273.885 547.2 274.685 546.3 275.685C545.4 276.685 542.5 277.185 545.1 277.785C547.7 278.385 548.8 278.585 547.9 279.285C547 279.985 545.8 283.685 547.7 283.585C549.6 283.485 549.4 281.985 550.9 281.485C552.5 280.985 552.3 281.885 552.8 283.285C553.3 284.785 551 285.585 552.6 286.785C554.2 287.885 555.7 286.485 556.4 288.085C557.1 289.685 555.8 290.185 556.2 291.285C556.6 292.485 557 292.985 558.3 293.985C559.6 294.985 559.8 294.585 559.2 295.685C558.6 296.785 558 296.385 559.8 297.585C561.5 298.785 562.2 300.485 563.2 299.785C564.2 299.185 563.8 299.185 563.6 300.985C563.4 302.785 562.7 303.285 564.5 303.485C566.3 303.685 566.1 302.285 566.8 301.385C567.5 300.585 566.6 302.285 568.3 300.985C570.1 299.685 567.2 298.385 568.4 297.685C569.6 296.985 571.1 297.785 572.5 297.685C573.9 297.485 576.1 293.785 575.6 291.185C575.2 288.585 578.1 284.685 578.1 284.685L563 259.785L554.6 255.285C554.6 255.185 542.3 251.685 542 254.785Z" fill="#267240"/>
<path d="M602.6 260.085C602.6 260.085 602.7 264.085 601 263.985C599.3 263.885 600.9 265.385 600.9 266.185C600.9 266.985 599.3 267.885 599.3 267.885C599.3 267.885 604.7 270.685 603.4 271.785C602.1 272.885 601.7 273.785 601.7 273.785C601.7 273.785 603.1 272.685 604.2 273.085C605.3 273.485 607.1 274.485 606.5 275.185C604.5 275.185 604.7 275.885 604.7 275.885C604.7 275.885 605.9 275.985 606.8 276.385C607.7 276.685 607.7 277.285 607.4 277.885C607.2 278.585 608.6 282.085 605.8 281.485C604.3 279.985 602.5 278.785 601.1 279.385C599.7 279.985 600.9 282.485 600.4 282.685C599.9 282.885 602.9 283.885 602 284.985C601.1 286.085 602.9 288.385 601.3 287.485C599.7 286.585 598.4 285.485 598.2 286.385C598 287.185 601.3 288.185 599.1 289.285C596.9 290.385 594.7 290.985 594.7 290.985C594.7 290.985 593.6 292.585 592.6 293.285C591.7 293.985 594.2 297.085 592.1 296.485C589.9 295.885 586.5 293.585 586.5 293.585L574.6 272.585L582.2 262.085L591.7 256.485L602.6 260.085Z" fill="#70C19B"/>
<path d="M541.2 240.785C541.2 240.785 541.5 236.985 543.1 237.085C544.7 237.185 544.6 235.285 545.9 236.285C547.2 237.285 547.4 238.185 548.2 237.285C549 236.385 548.9 233.985 550.1 234.185C551.3 234.385 552.2 235.185 553.3 234.185C554.4 233.185 555.9 233.385 556.5 234.385C557.1 235.385 555.5 236.385 557.1 236.185C558.7 235.985 558.2 232.785 559.3 233.385C560.4 233.985 560.4 234.885 561.8 235.585C563.2 236.185 563.7 233.485 566.5 233.885C569.3 234.385 569.9 232.985 570.5 233.285C571.1 233.585 573.2 233.685 572.8 234.785C572.4 235.885 572.5 236.885 573.1 236.785C573.8 236.785 573.9 235.885 575.3 235.585C576.8 235.285 575.3 236.785 576.8 237.085C578.2 237.385 578.3 236.085 578.7 236.385C579.2 236.785 578.2 238.385 579.6 238.685C581 239.085 582.3 238.085 582.2 238.785C582.1 239.485 580.9 240.185 581.4 240.985C581.9 241.785 583.4 242.485 584.2 243.185C585 243.885 586.1 244.785 586.2 245.585C586.3 246.385 585.3 247.985 586.7 248.785C588.1 249.585 588.6 248.085 588.1 249.585C587.6 250.985 587.2 252.285 587.2 252.285C587.2 252.285 588.5 249.685 589.9 250.485C591.3 251.285 593.1 251.385 592.5 252.985C591.9 254.585 591.5 255.985 592.6 255.985C593.7 255.885 595.2 253.985 596.1 254.485C597 254.985 598.7 257.285 600 256.785C601.4 256.185 600.9 255.585 602 256.585C603.1 257.585 602.9 258.785 602.3 260.385C601.7 261.885 602.7 260.385 601.7 261.885C600.7 263.485 599.3 260.285 599.3 260.285C599.3 260.285 596.3 262.085 595.8 260.785C595.2 259.385 593.6 258.785 593.6 258.785L591.4 261.385L586.5 261.885L580.6 247.885L565.5 244.585L545.1 244.085L541.2 240.785Z" fill="#78CA5A"/>
<path d="M536 246.285C536 246.285 540.1 240.385 542.7 239.685C545.4 238.985 544.7 242.485 546.3 242.385C548 242.185 547.2 240.785 548.8 240.985C550.5 241.185 547.3 237.685 551.7 236.385C556.1 235.085 555.7 236.285 556.4 239.685C557.2 243.085 557.6 242.685 559.2 240.385C560.2 240.785 560.8 242.285 561.5 242.285C562 239.085 559.6 239.285 560.4 237.785C561.2 236.285 567.8 233.885 569.1 235.285C570.4 236.685 566.7 239.285 570.2 239.385C573.7 239.485 571.1 236.385 574.5 238.185C577.9 239.985 574.4 242.185 575.1 242.385C575.7 242.585 577.8 239.785 580.4 241.685C583 243.685 579.3 245.985 581.3 247.485C583.3 248.985 584 245.085 585.2 247.085C586.4 249.085 580.1 250.985 584.1 253.685C588.1 256.385 586.7 255.285 587.7 258.985C588.7 262.685 590.3 264.285 588.4 264.785C586.5 265.385 580.7 264.285 578.9 267.685C577.1 271.085 574.5 271.585 575.9 273.585C565.8 262.985 558.2 257.285 558.2 257.285C558.2 257.285 552.6 258.085 550.6 258.585C547.6 258.585 546.5 258.085 546.5 258.085C546.5 258.085 550.3 257.485 548.4 255.585C546.5 253.685 546.2 250.885 544.2 249.585C542.2 248.385 541.2 251.885 539.7 252.285C538.2 252.685 536.4 251.185 537.7 248.185C536.7 247.985 533.6 248.085 536 246.285Z" fill="#26472C"/>
<path d="M578.7 286.085C578.7 286.085 577.3 287.585 577.4 288.685C577.5 289.785 579.5 291.385 578.2 291.585C576.9 291.785 576.9 291.585 576.1 292.985C575.3 294.385 574.6 296.885 575 297.685C575.4 298.385 576.3 298.885 574.5 299.885C572.6 300.885 571.5 300.985 573.2 301.785C574.9 302.585 576.1 300.985 576.1 302.085C576.1 303.085 574.5 306.885 572.3 307.285C570.1 307.685 568.7 307.385 567.7 306.285C567.1 308.085 565.8 309.185 567.6 310.085C569.4 310.885 569.3 311.285 570.3 312.085C571.3 312.885 572.3 311.585 573.4 311.685C574.5 311.785 573.7 309.485 575.1 309.985C576.5 310.485 575.5 311.785 577.2 311.885C579 312.085 578.7 313.085 579.8 312.885C580.9 312.685 579.6 311.485 580.3 310.085C580.9 308.685 583.1 311.885 582 312.785C582.8 315.485 582.8 316.185 581.6 316.285C582.5 317.985 585 319.785 586.3 318.685C585.3 316.785 585.8 312.985 586.5 310.585C587.2 308.185 587.4 308.685 586.4 306.185C585.5 303.685 578.7 286.085 578.7 286.085Z" fill="#305C37"/>
<path d="M590.2 303.485C590.2 303.485 583.3 287.285 583.3 285.985C583.3 284.785 596.9 280.185 599 280.085C594.9 280.185 582.8 284.985 582.1 284.285C581.4 283.585 577.9 277.785 578.3 277.085C578.7 276.385 585.7 266.985 587.9 266.485C586.9 266.285 586.9 266.285 586.9 266.285C586.9 266.285 579.8 270.885 577.4 275.685C575.9 273.785 573.7 271.185 574.2 267.985C574.7 264.785 574.2 262.185 579.6 256.785C576.2 259.185 573.2 262.685 572.9 265.885C572.6 269.085 572.1 268.285 572.1 268.285C572.1 268.285 568.8 264.185 568.7 262.585C568.5 260.885 567.8 258.385 570.6 255.485C567.9 258.785 566.9 260.385 567.3 261.585C566.3 259.585 563.6 257.685 569 248.785C569.8 246.585 571.9 243.085 571.9 243.085C571.9 243.085 569.2 245.485 568.7 246.485C568.2 247.485 568.2 248.685 566.4 251.985C564.6 255.285 563.6 257.185 564.2 258.585C562 256.685 561 255.685 560.6 254.485C560.2 253.385 560.2 247.085 561.6 244.485C560 247.485 559 251.485 559.2 253.385C556.1 251.885 553.6 250.385 551.1 249.485C556.2 253.285 558.4 255.385 559 256.385C554.5 254.985 550.1 253.285 547.8 254.585C554.1 255.685 557.4 256.985 560.3 259.085C563.2 261.185 565.8 264.185 567.3 268.185C564.7 266.585 562.1 264.985 560.1 264.585C565.1 267.485 569.4 271.085 570.8 273.785C566.9 273.085 565.1 271.385 560.7 274.485C565 273.485 568.8 273.785 571.9 276.485C575 279.185 580.5 293.085 580.5 293.085C580.5 293.085 584.9 302.085 586.3 306.385" fill="#C2E4A0"/>
<path d="M582.7 291.785C583.7 291.385 583.4 291.285 585.7 292.285C588.1 293.285 587.6 295.085 589.8 294.985C591.9 294.985 590.8 294.785 591.9 294.985C593 295.185 592.7 297.685 593.9 297.885C595.1 298.085 595.9 296.885 596.4 297.485C596.8 298.085 596 299.385 596.9 300.285C597.8 301.185 595.7 303.285 594.7 303.085C593.8 302.885 595.6 303.885 593.6 304.585C591.6 305.385 591.6 306.785 590.2 306.685C588.8 306.585 590.3 308.085 588.1 308.085C586 308.085 587.1 310.085 584.8 308.385C582.4 306.685 581.6 305.685 581.1 305.985C580.6 306.285 581.3 304.185 580.5 304.585C579.8 304.985 579.5 306.285 578.2 305.385C577 304.485 578.3 303.485 578.3 303.485C578.3 303.485 582.5 304.585 583.5 302.585C582.5 301.085 581.4 299.185 582.3 298.185C583.2 297.185 581.4 297.685 580.7 295.585C580.1 293.485 582.7 291.785 582.7 291.785Z" fill="#78CA5A"/>
<path d="M521.5 275.285C520.1 275.885 520 276.785 518.6 276.585C517.2 276.385 517.3 274.685 515.8 275.285C514.3 275.885 512.3 276.785 512 278.285C511.7 279.785 513.7 278.985 512.9 280.385C512.1 281.785 510.7 280.585 510 282.385C509.3 284.085 511.6 283.685 510.7 285.285C509.8 286.885 508.5 285.385 507.7 286.885C506.9 288.385 506.5 289.485 505.3 289.085C504 288.785 502.2 286.385 502.9 289.085C503.6 291.785 503.9 292.685 502.9 292.185C501.9 291.685 498 292.385 499.1 294.085C500.1 295.685 501.3 294.785 502.5 295.985C503.7 297.185 502.8 297.385 501.8 298.585C500.8 299.785 498.9 298.085 498.7 300.085C498.5 302.085 500.4 302.685 499.4 303.985C498.4 305.385 497.3 304.485 496.5 305.385C495.7 306.285 495.3 306.885 495.1 308.485C494.9 310.085 495.3 310.085 494.1 310.085C492.8 310.085 492.9 309.385 492.7 311.485C492.5 313.585 491.3 314.985 492.4 315.585C493.4 316.185 493.2 315.785 491.6 316.485C490 317.185 489.2 316.785 489.9 318.485C490.6 320.085 491.8 319.285 492.8 319.485C493.8 319.685 491.9 319.685 493.8 320.685C495.8 321.585 495.5 318.485 496.7 319.185C497.9 319.885 497.9 321.585 498.7 322.785C499.5 323.985 503.8 324.085 505.9 322.485C508 320.885 512.7 321.585 512.7 321.585L527.4 296.185V286.685C527.2 286.485 524.4 273.985 521.5 275.285Z" fill="#267240"/>
<path d="M545.8 330.985C545.8 330.985 542.3 332.985 541.6 331.485C540.9 329.985 540.3 332.085 539.6 332.385C538.9 332.685 537.4 331.785 537.4 331.785C537.4 331.785 537.5 337.785 535.9 337.285C534.3 336.685 533.3 336.685 533.3 336.685C533.3 336.685 534.9 337.385 535.2 338.585C535.4 339.785 535.3 341.885 534.5 341.585C533.6 339.885 533 340.285 533 340.285C533 340.285 533.5 341.485 533.6 342.385C533.7 343.285 533.3 343.585 532.6 343.685C531.9 343.785 529.5 346.685 528.7 343.985C529.3 341.985 529.5 339.785 528.4 338.885C527.3 337.985 525.6 340.185 525.1 339.785C524.6 339.485 525.2 342.585 523.8 342.385C522.4 342.185 521.2 344.785 521.2 342.985C521.2 341.185 521.5 339.485 520.7 339.685C519.9 339.885 520.6 343.285 518.6 341.885C516.6 340.485 515 338.885 515 338.885C515 338.885 513 338.685 512 338.185C511 337.685 509.4 341.485 509 339.185C508.5 336.985 508.9 332.885 508.9 332.885L521.7 312.485L534.6 314.085L544.1 319.785L545.8 330.985Z" fill="#70C19B"/>
<path d="M533.5 267.885C533.5 267.885 537 266.385 537.7 267.785C538.4 269.185 540 268.285 539.8 269.885C539.6 271.485 538.9 272.085 540 272.285C541.1 272.485 543.3 271.385 543.6 272.485C543.9 273.685 543.7 274.785 545.1 275.285C546.5 275.785 547.1 277.185 546.5 278.185C545.9 279.185 544.3 278.285 545.2 279.585C546.1 280.885 548.7 278.885 548.7 280.185C548.7 281.485 547.9 281.885 548 283.485C548.1 284.985 550.8 284.185 551.7 286.885C552.6 289.585 554.1 289.485 554.1 290.185C554.1 290.885 555 292.785 553.9 292.985C552.7 293.185 551.9 293.685 552.3 294.285C552.6 294.885 553.5 294.485 554.4 295.685C555.3 296.885 553.4 296.285 553.8 297.685C554.3 299.085 555.4 298.485 555.3 299.085C555.2 299.685 553.3 299.585 553.7 300.985C554 302.385 555.6 303.085 554.9 303.285C554.2 303.485 553 302.785 552.6 303.585C552.1 304.385 552.3 305.985 552 307.085C551.8 308.085 551.5 309.485 550.8 309.985C550.1 310.485 548.2 310.285 548.2 311.985C548.2 313.585 549.7 313.385 548.2 313.585C546.7 313.785 545.4 314.085 545.4 314.085C545.4 314.085 548.3 313.985 548.3 315.585C548.3 317.185 549 318.885 547.4 319.085C545.8 319.285 544.3 319.685 544.8 320.585C545.4 321.485 547.8 321.885 547.8 322.885C547.8 323.885 546.5 326.485 547.7 327.385C548.9 328.285 549.2 327.585 548.9 328.985C548.6 330.385 547.4 330.885 545.8 331.085C544.2 331.285 546 331.385 544.2 331.285C542.3 331.185 544.4 328.385 544.4 328.385C544.4 328.385 541.4 326.685 542.3 325.485C543.2 324.285 543 322.585 543 322.585L539.6 321.885L536.8 317.785L546.3 305.985L542 291.085L532.7 272.885L533.5 267.885Z" fill="#78CA5A"/>
<path d="M526.2 265.985C526.2 265.985 533.3 266.785 535.2 268.785C537.1 270.785 533.7 271.885 534.6 273.285C535.5 274.685 536.5 273.285 537.1 274.785C537.7 276.285 539.3 271.885 542.5 275.085C545.8 278.385 544.5 278.485 541.9 280.785C539.3 283.085 539.9 283.285 542.7 283.585C542.9 284.685 541.8 285.885 542.1 286.485C545.2 285.385 543.8 283.385 545.5 283.385C547.2 283.385 552.5 287.985 551.8 289.885C551.2 291.785 547.2 289.685 548.7 292.785C550.2 295.885 551.8 292.185 551.8 296.085C551.8 299.985 548.2 297.985 548.4 298.585C548.6 299.185 552 299.685 551.5 302.885C551 306.185 547.2 303.985 546.9 306.485C546.6 308.985 550.3 307.685 549.1 309.785C547.9 311.785 543.2 307.185 542.8 311.985C542.3 316.785 542.6 315.085 539.9 317.685C537.1 320.285 536.5 322.485 535.1 321.085C533.7 319.685 531.8 314.085 528 314.085C524.1 314.085 522.4 312.085 521.3 314.285C525.8 300.385 527.2 290.885 527.2 290.885C527.2 290.885 523.8 286.385 522.4 284.885C521 282.285 520.9 280.985 520.9 280.985C520.9 280.985 523.2 284.085 524 281.485C524.8 278.885 527.1 277.285 527.3 274.985C527.5 272.685 523.9 273.485 522.8 272.385C521.7 271.285 522.2 268.985 525.4 268.685C525 267.285 523.4 264.685 526.2 265.985Z" fill="#26472C"/>
<path d="M511.5 322.385C511.5 322.385 509.5 321.885 508.6 322.485C507.7 323.085 507.2 325.585 506.4 324.585C505.6 323.585 505.8 323.385 504.2 323.385C502.6 323.385 500 323.985 499.6 324.685C499.1 325.385 499.1 326.385 497.4 325.285C495.7 324.085 495 323.185 495.1 325.085C495.2 326.985 497.2 327.285 496.3 327.785C495.4 328.285 491.3 328.685 489.9 326.985C488.5 325.285 488 323.885 488.6 322.485C486.7 322.785 485.1 322.285 485.2 324.185C485.3 326.185 485 326.285 484.7 327.585C484.5 328.885 486.1 329.085 486.6 330.185C487.1 331.185 488.7 329.385 488.9 330.885C489.1 332.385 487.5 332.085 488.2 333.685C488.9 335.285 487.9 335.585 488.5 336.485C489.2 337.385 489.7 335.685 491.2 335.585C492.7 335.485 491 338.985 489.7 338.385C487.7 340.385 487.1 340.685 486.4 339.685C485.4 341.285 484.9 344.285 486.5 344.985C487.7 343.285 491.3 341.885 493.7 341.285C496.1 340.685 495.8 341.185 497.5 339.085C499.3 336.785 511.5 322.385 511.5 322.385Z" fill="#305C37"/>
<path d="M501.8 340.885C501.8 340.885 512.8 327.085 513.9 326.485C515 325.885 525.5 335.585 526.6 337.485C524.6 333.885 514.5 325.585 514.8 324.685C515.1 323.785 518.5 317.885 519.3 317.885C520.1 317.885 531.7 319.585 533.2 321.285C532.9 320.385 532.9 320.385 532.9 320.385C532.9 320.385 525.5 316.385 520.1 316.485C521 314.285 522.3 311.085 525.4 309.985C528.5 308.885 530.5 307.185 537.8 309.385C534.1 307.485 529.6 306.585 526.7 307.885C523.8 309.085 524.2 308.385 524.2 308.385C524.2 308.385 526.2 303.585 527.6 302.685C529 301.785 530.9 299.885 534.7 300.985C530.5 300.185 528.7 300.085 527.7 300.985C528.9 299.085 529.4 295.885 539.8 296.385C542.1 296.085 546.1 296.185 546.1 296.185C546.1 296.185 542.7 294.985 541.6 294.985C540.5 294.985 539.4 295.585 535.7 295.585C532 295.585 529.8 295.585 528.9 296.785C529.5 293.985 530 292.585 530.8 291.685C531.6 290.785 537.1 287.785 540.1 287.785C536.7 287.785 532.7 288.885 531.1 289.985C530.9 286.585 531.1 283.685 530.6 280.985C529.7 287.285 528.9 290.285 528.3 291.185C527.4 286.585 526.8 281.885 524.6 280.485C526.6 286.485 527.1 290.085 526.6 293.685C526.1 297.285 524.7 300.985 522 304.185C522.2 301.085 522.3 298.185 521.7 296.185C521.5 301.885 520.5 307.485 518.8 309.985C517.6 306.285 518.2 303.785 513.4 301.485C516.3 304.785 517.9 308.285 517 312.285C516.1 316.285 506.5 327.785 506.5 327.785C506.5 327.785 500.7 335.985 497.6 339.185" fill="#C2E4A0"/>
<path d="M508.5 328.685C509.3 329.385 509.3 328.985 509.5 331.585C509.7 334.185 508 334.585 509 336.485C510 338.385 509.7 337.285 510 338.385C510.3 339.485 508 340.385 508.4 341.485C508.7 342.685 510.3 342.785 509.9 343.485C509.6 344.185 508 344.085 507.7 345.185C507.4 346.385 504.4 345.485 504.2 344.585C504 343.685 504 345.785 502.3 344.385C500.7 342.985 499.4 343.685 498.8 342.385C498.2 341.085 497.6 343.085 496.6 341.185C495.6 339.285 494.4 341.285 494.7 338.385C495 335.485 495.5 334.285 495 333.985C494.5 333.685 496.6 333.285 495.9 332.785C495.2 332.285 493.9 332.685 494.2 331.185C494.4 329.685 495.9 330.385 495.9 330.385C495.9 330.385 496.9 334.585 499.2 334.585C500 332.985 501.2 331.085 502.5 331.485C503.8 331.885 502.5 330.485 504 328.785C505.7 327.185 508.5 328.685 508.5 328.685Z" fill="#78CA5A"/>
<path fill-rule="evenodd" clip-rule="evenodd" d="M264.1 329.9L265.5 331.8C265.5 331.8 265.026 366.237 253.5 372C250.486 373.507 245.252 375.081 239.166 376.583L302 364.5C304.377 361.783 306.575 358.63 308.599 355.727C315.516 345.806 320.406 338.792 323.5 362C327.5 392 236.5 427 230 422C223.5 417 198 384.5 198 384.5C197.151 383.332 187.791 369.061 178.971 355.612C171.177 343.727 163.804 332.485 163.1 331.5L161 328.6C153.9 318.5 148.6 311 146.5 308.1C136.5 294.1 130.8 256.1 130.8 256.1L127.9 252L127.3 252.4C126.3 253.1 125 252.9 124.3 251.9L122.7 249.6C122 248.6 122.2 247.3 123.2 246.6L123.8 246.2L122.6 244.4L120.2 246L99.1 216.2C98.1 214.5 107.4 206.2 119.8 197.5C132.2 188.8 143.2 183 144.5 184.5L165.6 214.3L163.2 215.9L164.4 217.7L165 217.3C166 216.6 167.3 216.8 168 217.8L169.6 220.1C170.3 221.1 170.1 222.4 169.1 223.1L168.5 223.5L171.4 227.6C171.4 227.6 204.9 246.3 214.8 260.3C215.303 261.01 215.999 261.984 216.865 263.194C218.923 266.072 221.939 270.291 225.6 275.5L263.7 329.3L263.9 329.6C263.95 329.65 263.975 329.7 264 329.75C264.025 329.8 264.05 329.85 264.1 329.9Z" fill="#0D005C" fill-opacity="0.15"/>
<path d="M179.2 187.485L137 218.985L116.2 191.085L158.3 159.585L179.2 187.485Z" fill="url(#paint0_linear_6689_244924)"/>
<path d="M185.2 200.085L147.4 228.285L139.2 217.385L177 189.085L185.2 200.085Z" fill="url(#paint1_linear_6689_244924)"/>
<path d="M182.8 195.885L144 224.885C143.1 225.585 141.8 225.385 141.1 224.485L139.5 222.285C138.8 221.385 139 220.085 139.9 219.385L178.7 190.385C179.6 189.685 180.9 189.885 181.6 190.785L183.2 192.985C183.9 193.885 183.8 195.185 182.8 195.885Z" fill="url(#paint2_linear_6689_244924)"/>
<path d="M321.7 356.485L258.2 403.985C258.2 403.985 173.5 290.685 163.7 277.585C153.9 264.485 147.4 228.385 147.4 228.385L185.2 200.185C185.2 200.185 217.4 217.085 227.2 230.185C237 243.285 321.7 356.485 321.7 356.485Z" fill="url(#paint3_linear_6689_244924)"/>
<path d="M299.811 393.367C317.33 380.273 328.046 364.997 323.748 359.246C319.449 353.495 301.764 359.447 284.245 372.541C266.727 385.635 256.01 400.912 260.309 406.663C264.607 412.414 282.293 406.461 299.811 393.367Z" fill="#E6E2E0"/>
<path d="M321.7 356.485C326 362.185 315.3 377.485 297.7 390.585C280.2 403.685 262.5 409.685 258.2 403.885C253.9 398.185 264.6 382.885 282.2 369.785C299.7 356.685 317.4 350.785 321.7 356.485Z" fill="url(#paint4_linear_6689_244924)"/>
<path d="M276.894 362.647C294.412 349.553 306.603 336.249 304.123 332.931C301.643 329.613 285.432 337.538 267.913 350.632C250.395 363.726 238.204 377.03 240.684 380.348C243.164 383.666 259.376 375.741 276.894 362.647Z" fill="#FBD35B"/>
<path d="M158.3 159.585C159.4 161.085 150.9 169.385 139.2 178.085C127.5 186.785 117.2 192.585 116.1 191.085C115 189.585 123.5 181.285 135.2 172.585C146.9 163.985 157.2 158.085 158.3 159.585Z" fill="url(#paint5_linear_6689_244924)"/>
<path d="M174.5 218.885L187.8 206.585L212.6 236.685L194.2 237.385C194.3 237.385 189.3 229.185 174.5 218.885Z" fill="#FFF6CF" fill-opacity="0.7"/>
<path d="M209 271.885C191.5 284.985 176 293.885 174.4 291.785L241.1 380.985L304.6 333.485L237.9 244.285C239.4 246.385 226.5 258.785 209 271.885Z" fill="#FBD35B"/>
<path d="M209 271.885C191.5 284.985 176 293.885 174.4 291.785L212 342.185L275.5 294.685L237.9 244.285C239.4 246.385 226.5 258.785 209 271.885Z" fill="#4F4E35"/>
<path d="M256.816 335.877C274.334 322.783 286.525 309.479 284.045 306.161C281.565 302.843 265.353 310.768 247.835 323.862C230.317 336.956 218.126 350.26 220.606 353.578C223.086 356.896 239.297 348.971 256.816 335.877Z" fill="#EDB529"/>
<path d="M275.94 295.166L212.42 342.643L220.622 353.616L284.142 306.139L275.94 295.166Z" fill="#EDB529"/>
<path d="M248.587 324.899C266.105 311.806 278.296 298.501 275.816 295.183C273.336 291.866 257.125 299.791 239.607 312.884C222.088 325.978 209.897 339.283 212.377 342.6C214.857 345.918 231.069 337.993 248.587 324.899Z" fill="#4F4E35"/>
<path d="M275.3 331.285C275.3 331.285 277.5 341.185 273.8 350.985C270.2 360.785 266.4 361.785 264.2 360.985C262.4 360.285 259.8 356.985 263.5 347.185C267.2 337.385 275.3 331.285 275.3 331.285Z" fill="#99CE38"/>
<path d="M253.5 371.185C253.5 371.185 246.1 366.885 243.6 359.485C241.1 351.985 243.6 349.385 245.9 348.585C247.8 347.985 251.8 348.385 254.3 355.885C256.8 363.385 253.5 371.185 253.5 371.185Z" fill="#99CE38"/>
<path d="M209 271.885C202.2 276.985 195.7 281.385 190.2 284.785C189.8 285.185 189.3 285.1 189 285.5C186.6 286.9 184.4 288.385 182.5 289.285C178 291.585 175.1 292.585 174.4 291.785L180.1 299.485C183 301.585 198.5 293.385 215.5 280.685C219.6 277.685 223.3 274.585 226.7 271.785L220.2 263.085C216.8 265.885 213 268.785 209 271.885Z" fill="#DEDCD0"/>
<path d="M374 255.785C374 263.885 368.3 270.085 354.2 270.085C340.1 270.185 328.6 263.685 328.6 255.485C328.6 247.385 337.3 238.385 351.5 238.285C373.8 238.285 373.9 247.685 374 255.785Z" fill="#302121"/>
<path d="M336.2 274.885C330 280.085 321.6 279.585 312.5 268.785C303.4 257.985 301.1 244.985 307.3 239.785C313.5 234.585 326 235.585 335.1 246.385C349.6 263.585 342.4 269.585 336.2 274.885Z" fill="#725045"/>
<path d="M325.2 241.885C319 247.085 310.6 246.585 301.5 235.785C292.4 224.985 290.1 211.985 296.3 206.785C302.5 201.585 315 202.585 324.1 213.385C338.6 230.585 331.4 236.585 325.2 241.885Z" fill="#533A3A"/>
<path d="M420.3 311.485C420.3 319.585 414.6 325.785 400.5 325.785C386.4 325.885 374.9 319.385 374.9 311.185C374.9 302.985 383.6 294.085 397.8 293.985C420.2 293.885 420.3 303.285 420.3 311.485Z" fill="#302121"/>
<path d="M384.3 300.485C384.3 308.585 378.6 314.785 364.5 314.785C350.4 314.885 338.9 308.385 338.9 300.185C338.9 291.985 347.6 283.085 361.8 282.985C384.2 282.885 384.3 292.285 384.3 300.485Z" fill="url(#paint6_linear_6689_244924)"/>
<path d="M401.4 265.785C401.3 271.385 392.4 278.985 381.7 278.885C371 278.785 364.9 272.385 365 266.785C365.1 261.185 371.9 255.285 382.5 255.485C399.5 255.685 401.5 260.285 401.4 265.785Z" fill="url(#paint7_linear_6689_244924)"/>
<path d="M411.4 269.085C416.7 266.785 428.8 274.585 434.4 287.685C440 300.885 437.2 311.085 431.9 313.385C426.6 315.685 417.3 309.885 411.7 296.685C402.8 275.785 406.1 271.385 411.4 269.085Z" fill="url(#paint8_linear_6689_244924)"/>
<path d="M369.8 280.385C372.3 272.685 387.7 264.085 402.4 268.785C417.2 273.585 425.7 290.085 423.2 297.885C420.7 305.585 408.6 310.985 393.8 306.185C370.4 298.485 367.3 287.985 369.8 280.385Z" fill="url(#paint9_linear_6689_244924)"/>
<path d="M323.1 277.785C325.6 270.085 341.4 265.385 356.2 270.285C371 275.085 371.1 280.285 368.6 287.985C366.1 295.685 352.5 296.785 341.6 295.385C325.7 293.385 320.6 285.585 323.1 277.785Z" fill="#412D2D"/>
<path d="M350.5 304.885C344.1 299.985 344.8 283.485 354.2 271.185C363.6 258.785 368.5 260.385 375 265.185C381.4 270.085 378.1 283.285 373.2 293.085C366 307.585 357 309.885 350.5 304.885Z" fill="#5C3C32"/>
<path d="M352.5 319.885C346.1 314.985 346.8 298.485 356.2 286.185C365.6 273.785 370.5 275.385 377 280.185C383.4 285.085 380.1 298.285 375.2 308.085C368 322.585 359 324.885 352.5 319.885Z" fill="#725045"/>
<path d="M516.8 224.685V206.685L494.8 208.885" fill="#9F2E00"/>
<path d="M479 198.785L517.6 207.785L515.8 201.185L493.9 186.885L473.8 184.985L479 198.785Z" fill="#8C2C00"/>
<path d="M516.7 204.285C516.7 204.285 500.8 193.185 494 195.085C496.9 188.285 507.7 187.185 507.7 187.185L516.6 194.085L516.7 204.285Z" fill="#AA3900"/>
<path d="M531.1 188.085C531.1 188.085 527.8 178.085 527.7 178.985C527.6 179.885 471.8 153.085 471.8 153.085L471.6 175.585L493.3 185.385L531.1 188.085Z" fill="#8C2C00"/>
<path d="M529.3 168.385C529.3 168.385 561.3 173.385 562.2 174.585C563.1 175.785 563.1 177.985 563.1 177.985C563.1 177.985 564.9 180.885 564.6 181.985C564.3 182.985 542.9 180.585 542.9 180.585L529.3 168.385Z" fill="#EF9502"/>
<path d="M460.3 156.785C460.3 156.785 478.1 154.985 487 160.885C496 166.785 507.1 171.485 507.1 171.485L492.3 152.485L469.9 140.285L460.3 156.785Z" fill="#E27C05"/>
<path d="M462 154.185C462 154.185 465.1 149.485 475.8 152.185C486.5 154.885 497.4 168.185 508.6 174.585C519.8 180.985 530.7 183.085 530.7 183.085L481.8 142.885L463.3 141.185L462 154.185Z" fill="#E66F02"/>
<path d="M472 171.485C472 171.485 488.5 178.385 493.5 179.385C488.9 185.985 484.1 190.185 484.1 190.185L476.8 186.985L472 171.485Z" fill="#963400"/>
<path d="M486.1 204.585L471.4 184.685L459.7 162.085L462 154.185L477.1 155.485C473.4 157.485 472.4 171.085 475.6 179.785C478.9 188.285 486.1 204.585 486.1 204.585Z" fill="#D54C00"/>
<path d="M462.3 162.685C467.4 163.385 484.8 174.585 489 175.085C493.2 175.685 498.8 176.685 498.8 176.685L507.7 177.585C507.7 177.585 500.3 170.385 497.9 169.085C495.5 167.785 479.2 162.785 476.6 161.585C474 160.385 467.3 154.985 461.4 157.085C459.6 157.685 462.3 162.685 462.3 162.685Z" fill="#E78900"/>
<path d="M441.4 156.085L468.3 137.185L437.1 134.085" fill="#8C2C00"/>
<path d="M438.3 135.885C444.3 131.985 463.8 132.285 469.1 134.985C451.8 136.085 421.8 152.885 421.6 163.085" fill="#D56C04"/>
<path d="M409.1 145.985C409.1 145.985 443.4 133.585 461.4 136.585C479.4 139.685 530.5 185.485 536.4 190.185C543.3 195.585 561.8 204.985 561.8 204.985L563.8 195.985C563.8 195.985 534 169.285 529.3 167.385C524.5 165.485 472.3 120.085 449.8 126.285" fill="#EF9A24"/>
<path d="M561.7 204.985L550.9 202.585L537.3 193.785L527.2 182.585C527.2 182.585 489.8 145.585 495.3 150.785C501 155.885 561.7 204.985 561.7 204.985Z" fill="#DE8700"/>
<path d="M532.4 183.285L554.4 201.585L554.6 203.485C554.6 203.485 548.8 202.585 547.7 200.985C546.5 199.385 533.1 189.685 533.1 189.685L532.4 183.285Z" fill="#8C2C00"/>
<path d="M464.2 187.585L454.6 163.585L445.1 163.385" fill="#B55700"/>
<path d="M445.3 145.885C458.9 137.785 463.6 137.085 465.7 137.385C467.8 137.685 468.3 138.585 468.3 138.585C468.3 138.585 462.3 137.885 456.3 142.985C450.3 148.085 435.1 174.285 435.1 174.285" fill="#C15C00"/>
<path d="M455.3 193.985V174.685L460.2 180.485L459.8 191.885" fill="#EF9A24"/>
<path d="M456.8 181.485C447.6 161.985 451.3 148.885 451.3 148.885L459.2 139.985L464.7 139.285C464.7 139.285 460.2 149.185 460.3 155.285C460.4 161.385 466.7 174.285 470.2 181.985C473.7 189.685 485.3 205.385 485.3 205.385" fill="#C85F00"/>
<path d="M484.3 204.685C484.3 204.685 471.6 189.085 466 177.485C460.4 165.885 458 159.585 459.4 152.785C460.8 145.885 464.8 139.285 464.8 139.285L468.3 138.585C468.3 138.585 461.5 147.485 462.5 155.585C463.5 163.685 467.9 176.785 470.6 180.385C473.3 183.985 491.8 207.285 491.8 207.285" fill="#F29F00"/>
<path d="M446.1 156.985L451.7 146.385L453.6 150.985L448.9 179.185" fill="#A13E00"/>
<path d="M438.3 179.185C441.8 168.385 449 147.585 461.7 141.385C474.4 135.185 499.7 163.585 507.5 168.885C515.4 174.185 528.8 176.985 528.8 176.985L526.8 173.285C526.8 173.285 516.4 173.685 507.6 166.085C498.8 158.385 475.9 133.085 462.4 138.185C448.9 143.385 437.2 161.485 435 174.185" fill="#F16804"/>
<path d="M551.9 249.885L550.6 241.085L531.9 215.785L525.7 222.585" fill="#E97102"/>
<path d="M521.7 229.185C522.2 230.085 530.6 235.985 534.8 243.485C539 251.085 544 257.685 544 257.685L547.8 256.485L543 238.285L527.8 222.185L521.7 229.185Z" fill="#EF9600"/>
<path d="M563.8 250.285L546.4 233.685L540 223.685L546.4 223.985L574.9 246.385" fill="#9F2E00"/>
<path d="M557.2 252.085L547.9 235.385L565.8 249.185" fill="#7D1D03"/>
<path d="M559.1 251.885C559.1 251.885 560.3 249.285 558.2 248.685C556.2 248.085 542.7 251.285 536.2 244.585" fill="#EFA701"/>
<path d="M574.4 245.285L539.6 213.285L523.7 202.685L527 219.085C528.1 219.085 541.6 223.385 550.8 230.285C560 237.185 568.2 244.785 568.2 244.785L574.4 245.285Z" fill="#F0A20D"/>
<path d="M574.4 245.285C574.4 245.285 564.5 235.685 558.1 230.685C551.6 225.685 530.9 207.585 525.7 206.385C521.7 194.585 523.1 195.185 523.1 195.185C523.1 195.185 559.6 225.185 563.4 229.585C567 233.985 573.8 241.085 574.4 245.285Z" fill="#FFB13C"/>
<path d="M546.9 210.785L554.3 211.085L550.1 214.685L546.9 210.785Z" fill="#EC9B06"/>
<path d="M579.7 236.285C575.8 238.885 572.4 236.785 569.9 235.585C567.3 234.385 530.9 201.985 519.4 195.985C507.8 190.085 496.3 186.585 496.1 194.285C495.4 183.485 499.2 179.485 499.2 179.485L521.6 186.385L541.3 203.685C541.3 203.685 566.9 226.285 579.7 236.285Z" fill="#F29100"/>
<path d="M536 188.885C536 188.885 543.3 194.285 544.3 196.285C545.3 198.285 547.9 204.185 547.9 204.185L541.4 206.785C541.4 206.785 527.3 193.785 517.4 189.285C507.5 184.785 502.9 180.985 496.3 185.285C498.8 176.685 498.3 174.685 498.3 174.685C498.3 174.685 515.3 178.285 536 188.885Z" fill="#E97E01"/>
<path d="M515 225.985C515 225.985 518.3 214.185 514 201.385C509.8 188.485 510.9 184.885 510.9 184.885L512.4 184.985L518 190.385L525 231.185" fill="#C25200"/>
<path d="M529.3 242.185C529.3 242.185 532.4 217.385 526 202.585C519.6 187.785 518.4 187.585 518.4 187.585L512.3 184.885C512.3 184.885 521.3 195.485 521.4 233.985" fill="#F3A500"/>
<path d="M500.3 207.785L492.6 196.385C492.6 196.385 513.5 204.585 515.7 204.385C517.8 204.085 510.1 208.985 510.1 208.985L500.3 207.785Z" fill="#B64300"/>
<path d="M498.8 207.985C498.8 207.985 489.9 200.585 493.5 179.385C493.5 179.385 484 178.785 482.9 184.185C481.8 189.585 480.9 195.285 481.8 198.485" fill="#DE8700"/>
<path d="M498.6 209.885C502.3 211.585 507.3 213.085 517.2 208.485C527 203.885 536.7 200.985 536.6 192.285C536.5 183.685 533.5 181.585 528.2 177.985C526.5 176.785 513.7 173.785 506.6 167.285C486.6 148.985 469.7 138.385 465.1 140.585C458.4 143.785 462.5 147.285 462.4 155.685C462.4 159.685 459.6 141.385 473 145.085C482.8 147.785 502.6 168.485 511 172.585C525.7 179.885 527.4 183.685 528.6 185.685C530.2 188.785 532 194.785 525 198.485C518 202.185 507.5 211.885 501.3 204.485C495.2 197.085 496.8 198.085 496.7 191.385C496.6 184.785 496.7 179.185 499.9 177.885C503.1 176.485 522.2 184.585 528 188.285C526.6 185.685 508.9 174.285 502.1 172.585C495.3 170.785 494.3 174.685 493.3 176.585C492.3 178.485 488.5 189.685 489.6 196.685C490.9 203.585 494.9 208.185 498.6 209.885Z" fill="#FFA528"/>
<path d="M446.1 162.785C447.8 151.585 452.1 155.185 452.1 155.185C452.1 155.185 450.6 184.785 451.1 187.785" fill="#EFA101"/>
<path d="M551.9 249.885C551.9 249.885 547.7 235.585 531.2 217.985C536.7 219.885 539.8 220.985 539.8 220.985C539.8 220.985 549.6 232.585 552.1 237.985C554.7 243.285 557.2 248.685 557.2 248.685L551.9 249.885Z" fill="#F8A21E"/>
<path d="M360.8 204.085L395.9 201.585L393.3 157.985L356.8 144.385C356.8 144.385 334.5 179.485 335.9 180.085C337.2 180.685 353.5 191.385 353.5 191.385L360.8 204.085Z" fill="#FFFACC"/>
<path d="M326.9 194.785C320.8 193.185 321.1 185.085 324.9 179.285C328.8 173.385 347.2 168.585 349.1 165.385C361.1 165.085 371.1 167.885 379.5 161.485C381.7 165.085 384.3 172.785 384.3 172.785C384.3 172.785 378.2 177.685 376.9 181.485C375.6 185.285 376 198.185 376 198.185C376 198.185 373.9 192.585 371.5 190.285C369.1 187.985 360.5 194.185 353.1 193.885C345.7 193.485 326.9 194.785 326.9 194.785Z" fill="#F3EB92"/>
<path d="M382 158.885C382 158.885 382.5 167.485 377.5 171.185C372.6 174.885 364.8 176.985 364.8 176.985C364.8 176.985 373.4 171.785 374.3 170.885C375.2 169.985 374.5 155.585 374.5 155.585L382 158.885Z" fill="#FAD829"/>
<path d="M353.1 193.785C353.1 193.785 348.3 199.285 351.2 202.185C354.1 205.085 357 211.885 363.2 211.585C369.3 211.185 384.2 207.385 384.2 207.385C384.2 207.385 388.1 214.485 397.8 207.985C407.5 201.485 409.4 202.185 408.1 198.285C406.8 194.385 406.5 190.185 402.6 188.885C407.4 185.285 408.7 173.685 409.3 168.485C409.9 163.285 402.8 155.585 401.2 153.285C399.6 150.985 391.2 140.685 389.5 140.985C387.9 141.285 378.2 141.285 378.2 141.285C378.2 141.285 380.1 133.485 369.8 130.285C359.5 127.085 342 136.785 341 141.685C340 146.585 342.6 154.285 346.5 158.185C344.2 166.285 338.1 174.985 338.1 174.985C338.1 174.985 353.9 164.285 357.2 158.485C359.5 154.285 359.5 154.285 359.5 154.285C359.5 154.285 360.8 160.785 362.7 158.785C364.6 156.785 369.5 153.285 369.5 153.285C369.5 153.285 369.5 154.585 372.4 157.485C375.3 160.385 381.5 158.085 381.5 158.085C381.5 158.085 385.7 170.685 389 171.385C392.2 171.985 378.3 177.485 379.3 183.085C380.3 188.585 386.8 196.385 392.2 195.985C384.4 196.585 379.9 200.585 379.9 200.585C379.9 200.585 379.6 197.685 373.7 197.685C367.8 197.685 364 198.285 364 198.285L362.4 193.485L353.1 193.785Z" fill="#F8E98B"/>
<path d="M342.9 152.785L345.2 155.585L342.6 145.185C342.6 145.185 345.2 141.985 348.1 142.285C351 142.585 352.9 136.785 354.9 138.685C356.9 140.585 364.3 141.585 364.3 141.585C364.3 141.585 361.1 146.685 364.7 149.685C368.2 152.585 374.7 146.085 374.7 146.085C374.7 146.085 373.8 150.285 378.6 151.885C381.6 152.885 383.3 151.185 384.1 149.785C384.1 150.785 384.6 152.385 386.4 155.085C390.3 160.885 394.8 159.585 394.8 159.585C394.8 159.585 395.4 163.385 394.5 166.385C393.5 169.285 398.4 168.285 401.6 173.485C404.9 178.685 393.9 188.385 393.9 188.385C393.9 188.385 401.1 198.685 402.3 199.985C403.6 201.285 397.6 204.885 397.6 204.885C397.6 204.885 392.9 209.485 387.7 204.885C382.5 200.385 378.3 207.185 374.1 204.885C369.9 202.585 366.7 208.385 362.8 205.185C358.9 201.985 353.1 202.585 353.1 202.585V204.385C355.5 207.585 358.3 211.585 363.1 211.385C369.2 210.985 384.1 207.185 384.1 207.185C384.1 207.185 388 214.285 397.7 207.785C407.4 201.285 409.3 201.985 408 198.085C406.7 194.185 406.4 189.985 402.5 188.685C407.3 185.085 408.6 173.485 409.2 168.285C409.8 163.085 402.7 155.385 401.1 153.085C399.5 150.785 391.1 140.485 389.4 140.785C387.7 141.085 378.1 141.085 378.1 141.085C378.1 141.085 380 133.285 369.7 130.085C359.4 126.885 341.9 136.585 340.9 141.485C340.4 144.785 341.3 149.085 342.9 152.785Z" fill="#FAD829"/>
<path d="M356.8 151.385C356.8 151.385 354.9 163.285 341.1 171.485C327.3 179.685 327.1 178.585 324.5 182.485C322 186.385 339 180.985 339 180.985L356.7 171.485C356.7 171.485 365.5 161.785 364.5 157.285C363.4 152.685 356.8 151.385 356.8 151.385Z" fill="#FAD829"/>
<path d="M326.9 193.885C326.9 193.885 344.2 192.085 347.1 191.085C350 190.085 353.4 191.585 353.4 191.585L351.6 188.485C351.6 188.485 329.7 192.085 326.9 193.885Z" fill="#FFFACC"/>
<path d="M326.9 144.885C326.9 144.885 344.2 143.085 347.1 142.085C350 141.085 353.4 142.585 353.4 142.585L351.6 139.485C351.6 139.485 329.7 143.085 326.9 144.885Z" fill="#DBBB15"/>
<path d="M306.2 203.885L317.5 237.185L359 223.585L362.9 184.785C362.9 184.785 323.3 172.185 323 173.685C322.8 175.185 316.6 193.585 316.6 193.585L306.2 203.885Z" fill="#FFFACC"/>
<path d="M306.6 168.685C306.6 162.285 314.5 160.585 321.1 162.885C327.8 165.185 337.1 181.785 340.8 182.785C344.1 194.285 343.9 204.685 352.3 211.185C349.4 214.285 342.6 218.785 342.6 218.785C342.6 218.785 336.3 214.085 332.3 213.885C328.2 213.685 315.9 217.285 315.9 217.285C315.9 217.285 320.8 213.785 322.4 210.885C324.1 207.985 315.8 201.185 314.2 193.985C312.6 186.485 306.6 168.685 306.6 168.685Z" fill="#F3EB92"/>
<path d="M355.3 212.885C355.3 212.885 347.1 215.485 342.2 211.685C337.4 207.885 333.3 200.885 333.3 200.885C333.3 200.885 340.5 207.885 341.6 208.485C342.7 209.085 356.5 204.785 356.5 204.785L355.3 212.885Z" fill="#FAD829"/>
<path d="M314.2 193.785C314.2 193.785 307.6 190.485 305.6 194.085C303.5 197.685 297.7 202.185 299.6 208.085C301.5 213.985 309 227.285 309 227.285C309 227.285 303.1 232.885 311.9 240.585C320.7 248.285 320.5 250.285 323.9 248.085C327.3 245.885 331.3 244.485 331.6 240.385C336.3 244.185 347.9 242.385 353 241.685C358.2 240.985 363.8 232.085 365.6 229.985C367.4 227.885 375.2 217.085 374.5 215.585C373.8 214.085 371.3 204.685 371.3 204.685C371.3 204.685 379.3 204.585 379.7 193.785C380.2 182.985 366.3 168.585 361.4 168.885C356.4 169.185 349.6 173.685 346.8 178.485C338.4 178.385 328.4 174.685 328.4 174.685C328.4 174.685 342.8 187.285 349.2 188.885C353.9 189.985 353.9 189.985 353.9 189.985C353.9 189.985 348 192.885 350.3 194.285C352.7 195.685 357.4 199.385 357.4 199.385C357.4 199.385 356.2 199.785 354.1 203.285C352 206.785 355.8 212.185 355.8 212.185C355.8 212.185 344.7 219.485 344.9 222.785C345.1 226.085 336.2 213.985 331.1 216.385C326 218.685 320.2 226.985 321.9 232.185C319.3 224.885 314.4 221.485 314.4 221.485C314.4 221.485 317.1 220.485 315.6 214.785C314.1 209.085 312.5 205.585 312.5 205.585L316.8 202.785L314.2 193.785Z" fill="#F8E98B"/>
<path d="M351.3 173.585L349.1 176.485L358.5 171.385C358.5 171.385 362.3 173.085 362.7 175.985C363.2 178.885 369.3 179.285 367.9 181.585C366.5 183.985 367.5 191.385 367.5 191.385C367.5 191.385 361.7 189.585 359.8 193.785C357.9 197.985 365.8 202.585 365.8 202.585C365.8 202.585 361.5 202.785 361.2 207.785C361 210.985 363 212.085 364.6 212.585C363.6 212.885 362.2 213.785 360.1 216.185C355.5 221.385 357.9 225.485 357.9 225.485C357.9 225.485 354.3 227.085 351.3 226.885C348.3 226.685 350.4 231.185 346.3 235.585C342.1 240.085 329.9 231.885 329.9 231.885C329.9 231.885 321.7 241.485 320.8 242.985C319.9 244.585 314.9 239.685 314.9 239.685C314.9 239.685 309.3 236.285 312.4 230.085C315.5 223.885 307.8 221.585 308.9 216.985C310 212.285 303.6 210.685 305.7 206.085C307.8 201.485 305.7 196.085 305.7 196.085L304 196.585C301.6 199.685 298.3 203.485 299.8 208.085C301.7 213.985 309.2 227.285 309.2 227.285C309.2 227.285 303.3 232.885 312.1 240.585C320.9 248.285 320.7 250.285 324.1 248.085C327.5 245.885 331.5 244.485 331.8 240.385C336.5 244.185 348.1 242.385 353.2 241.685C358.3 240.985 364 232.085 365.8 229.985C367.6 227.885 375.4 217.085 374.7 215.585C373.9 214.085 371.5 204.685 371.5 204.685C371.5 204.685 379.5 204.585 379.9 193.785C380.4 182.985 366.5 168.585 361.6 168.885C358.4 169.085 354.4 170.985 351.3 173.585Z" fill="#FAD829"/>
<path d="M356.2 186.585C356.2 186.585 344.2 187.785 332.8 176.485C321.3 165.185 322.3 164.785 317.9 163.285C313.5 161.785 323.1 176.885 323.1 176.885L336.8 191.585C336.8 191.585 348.4 197.685 352.5 195.485C356.6 193.385 356.2 186.585 356.2 186.585Z" fill="#FAD829"/>
<path d="M307.5 168.485C307.5 168.485 313.7 184.785 315.3 187.285C317 189.885 316.5 193.485 316.5 193.485L319 190.985C319 191.085 309.9 170.685 307.5 168.485Z" fill="#FFFACC"/>
<path d="M448.9 318.885L456.7 344.585C456.7 344.585 507.9 343.585 510.9 338.785C513.9 333.985 514 327.885 509.6 321.585C505.2 315.185 498 308.685 498 308.685C498 308.685 473.6 315.885 448.9 318.885Z" fill="#F1AF1A"/>
<path d="M448.9 318.885C448.9 318.885 444.6 330.685 446.1 336.885C447.6 343.085 453.8 361.885 453.8 361.885L456.8 344.585L448.9 318.885Z" fill="#CE6102"/>
<path d="M453.7 361.885C453.7 361.885 489.1 362.685 494.2 359.285C499.3 355.885 510.6 343.185 510.8 338.785C511.1 334.485 456.6 344.585 456.6 344.585L453.7 361.885Z" fill="#B94302"/>
<path d="M395.1 313.785L395.5 340.585C395.5 340.585 444.9 353.885 449.2 350.085C453.5 346.285 455.2 340.485 452.7 333.185C450.3 325.885 445.2 317.585 445.2 317.585C445.2 317.585 419.7 317.785 395.1 313.785Z" fill="#F1AF1A"/>
<path d="M395.1 313.785C395.1 313.785 387.7 323.985 387.4 330.285C387.1 336.585 387.8 356.485 387.8 356.485L395.4 340.685L395.1 313.785Z" fill="#CE6102"/>
<path d="M387.8 356.485C387.8 356.485 421.6 367.085 427.5 365.285C433.4 363.485 447.7 354.285 449.2 350.285C450.7 346.185 395.5 340.785 395.5 340.785L387.8 356.485Z" fill="#B94302"/>
<path d="M440.1 322.785C483.731 322.785 519.1 287.415 519.1 243.785C519.1 200.154 483.731 164.785 440.1 164.785C396.47 164.785 361.1 200.154 361.1 243.785C361.1 287.415 396.47 322.785 440.1 322.785Z" fill="#FFFCF2"/>
<path d="M440.1 312.785C478.208 312.785 509.1 281.893 509.1 243.785C509.1 205.677 478.208 174.785 440.1 174.785C401.992 174.785 371.1 205.677 371.1 243.785C371.1 281.893 401.992 312.785 440.1 312.785Z" fill="#FDEFC1"/>
<path d="M402.3 186.085C437.1 190.985 477.1 203.785 508.5 234.785C504.1 200.885 475.2 174.785 440.1 174.785C426.1 174.785 413.1 178.985 402.3 186.085Z" fill="#E8D5B2"/>
<path d="M466.5 71.5849L441.7 87.8849C440 89.0849 437.7 88.4849 436.6 86.7849L420.3 61.9849C419.1 60.2849 419.7 57.9849 421.4 56.8849L446.2 40.5849C447.9 39.3849 450.2 39.9849 451.3 41.6849L467.6 66.4849C468.6 68.1849 468.2 70.4849 466.5 71.5849Z" fill="#355E00"/>
<path d="M462.2 74.3849L437.4 90.6849C435.7 91.8849 433.4 91.2849 432.3 89.5849L416 64.7849C414.8 63.0849 415.4 60.7849 417.1 59.6849L441.9 43.3849C443.6 42.1849 445.9 42.7849 447 44.4849L463.3 69.2849C464.4 70.9849 463.9 73.2849 462.2 74.3849Z" fill="#98CE24"/>
<path d="M461.4 74.8849L436.6 91.1849C434.9 92.3849 432.6 91.7849 431.5 90.0849L415.2 65.2849C414 63.5849 414.6 61.2849 416.3 60.1849L441.1 43.8849C442.8 42.6849 445.1 43.2849 446.2 44.9849L462.5 69.7849C463.6 71.4849 463.1 73.7849 461.4 74.8849Z" fill="#355E00"/>
<path d="M457.4 77.5849L432.6 93.8849C430.9 95.0849 428.6 94.4849 427.5 92.7849L411.1 67.9849C409.9 66.2849 410.5 63.9849 412.2 62.8849L437 46.5849C438.7 45.3849 441 45.9849 442.1 47.6849L458.4 72.4849C459.6 74.0849 459.1 76.3849 457.4 77.5849Z" fill="#98CE24"/>
<path d="M453.5 80.0849L431.1 94.7849C429.5 95.8849 427.3 95.3849 426.2 93.7849L409.7 68.7849C408.6 67.1849 409.1 64.9849 410.7 63.8849L433.1 49.0849C434.7 47.9849 436.9 48.4849 438 50.0849L454.5 75.1849C455.6 76.7849 455.2 78.9849 453.5 80.0849Z" fill="#FFFEC7"/>
<path d="M402.9 105.685L421.4 82.4849C422.7 80.8849 425 80.5849 426.6 81.8849L449.8 100.385C451.4 101.685 451.7 103.985 450.4 105.585L431.9 128.785C430.6 130.385 428.3 130.685 426.7 129.385L403.5 110.885C401.9 109.585 401.6 107.285 402.9 105.685Z" fill="#355E00"/>
<path d="M406 101.685L424.5 78.4849C425.8 76.8849 428.1 76.5849 429.7 77.8849L452.9 96.3849C454.5 97.6849 454.8 99.9849 453.5 101.585L435.1 124.785C433.8 126.385 431.5 126.685 429.9 125.385L406.7 106.885C405.1 105.685 404.8 103.285 406 101.685Z" fill="#98CE24"/>
<path d="M406.6 100.985L425.1 77.7849C426.4 76.1849 428.7 75.8849 430.3 77.1849L453.5 95.6849C455.1 96.9849 455.4 99.2849 454.1 100.885L435.6 124.085C434.3 125.685 432 125.985 430.4 124.685L407.2 106.185C405.7 104.885 405.4 102.485 406.6 100.985Z" fill="#355E00"/>
<path d="M409.6 97.1849L428.1 73.9849C429.4 72.3849 431.7 72.0849 433.3 73.3849L456.5 91.8849C458.1 93.1849 458.4 95.4849 457.1 97.0849L438.6 120.285C437.3 121.885 435 122.185 433.4 120.885L410.2 102.385C408.7 101.085 408.4 98.7849 409.6 97.1849Z" fill="#98CE24"/>
<path d="M412.6 93.5849L429.3 72.5849C430.5 71.0849 432.7 70.7849 434.3 71.9849L457.8 90.6849C459.3 91.8849 459.6 94.0849 458.4 95.6849L441.7 116.685C440.5 118.185 438.3 118.485 436.7 117.285L413.1 98.4849C411.6 97.2849 411.3 95.0849 412.6 93.5849Z" fill="#FFFEC7"/>
<path d="M370.1 117.785C379.489 117.785 387.1 108.383 387.1 96.7849C387.1 85.1869 379.489 75.7849 370.1 75.7849C360.711 75.7849 353.1 85.1869 353.1 96.7849C353.1 108.383 360.711 117.785 370.1 117.785Z" fill="#C43D32"/>
<path d="M365.1 117.785C371.728 117.785 377.1 111.741 377.1 104.285C377.1 96.8291 371.728 90.7849 365.1 90.7849C358.473 90.7849 353.1 96.8291 353.1 104.285C353.1 111.741 358.473 117.785 365.1 117.785Z" fill="#A6342A"/>
<path d="M391.3 107.585L379.1 80.4849C378.2 78.5849 379.1 76.4849 381 75.5849L408.1 63.4849C410 62.5849 412.1 63.4849 413 65.3849L425.1 92.4849C426 94.3849 425.1 96.4849 423.2 97.3849L396.1 109.485C394.3 110.285 392.1 109.385 391.3 107.585Z" fill="#355E00"/>
<path d="M389.2 102.885L377.1 75.7849C376.2 73.8849 377.1 71.7849 379 70.8849L406.1 58.7849C408 57.8849 410.1 58.7849 411 60.6849L423.1 87.7849C424 89.6849 423.1 91.7849 421.2 92.6849L394.1 104.785C392.3 105.585 390 104.785 389.2 102.885Z" fill="#98CE24"/>
<path d="M388.8 102.085L376.7 74.9849C375.8 73.0849 376.7 70.9849 378.6 70.0849L405.7 57.9849C407.6 57.0849 409.7 57.9849 410.6 59.8849L422.7 86.9849C423.6 88.8849 422.7 90.9849 420.8 91.8849L393.7 103.985C391.8 104.785 389.6 103.885 388.8 102.085Z" fill="#355E00"/>
<path d="M386.8 97.6849L374.7 70.5849C373.8 68.6849 374.7 66.5849 376.6 65.6849L403.7 53.5849C405.6 52.6849 407.7 53.5849 408.6 55.4849L420.7 82.5849C421.6 84.4849 420.7 86.5849 418.8 87.4849L391.7 99.5849C389.9 100.385 387.7 99.4849 386.8 97.6849Z" fill="#98CE24"/>
<path d="M385 93.3849L374 68.8849C373.2 67.0849 374 64.9849 375.8 64.1849L403.2 51.8849C405 51.0849 407.1 51.8849 407.9 53.6849L418.9 78.1849C419.7 79.9849 418.9 82.0849 417.1 82.8849L389.7 95.1849C387.8 95.9849 385.8 95.1849 385 93.3849Z" fill="#FFFEC7"/>
<path d="M314.4 127.985L319.1 119.185C319.1 119.185 317.7 114.285 320.6 109.185C323.5 103.985 327.1 92.0849 328.7 92.4849C332 94.4849 332 94.4849 332 94.4849L333.2 89.8849L340 85.5849C340 85.5849 349.8 85.1849 351.7 89.1849C353.7 93.1849 355.3 102.585 355.3 102.585L354.9 106.585C354.9 106.585 357.4 107.785 358.5 113.585C359.6 119.385 361.4 126.285 357.4 130.285C336.6 128.185 314.4 127.985 314.4 127.985Z" fill="#D24135"/>
<path d="M355.2 105.985C355.2 105.985 369.1 104.785 371.2 104.985C373.3 105.185 378.8 104.785 378.8 104.785L388.6 110.985L390.4 121.585L391.8 143.985L354.4 130.585L355.2 105.985Z" fill="#E1704A"/>
<path d="M367.6 132.885C367.6 132.885 365.2 126.685 366.1 126.785C367.1 126.885 369.7 128.785 369.7 128.785C369.7 128.785 370.2 128.185 371.8 128.785C373.4 129.385 374.5 130.285 374.5 130.285C374.5 130.285 378.4 131.585 378.2 133.485C380.9 135.185 384.8 140.085 384 141.685C375.7 139.185 367.6 132.885 367.6 132.885Z" fill="#7A221F"/>
<path d="M354.2 106.585C354.2 106.585 353.6 104.185 354.6 102.585C355.8 100.785 358.7 99.8849 359.4 99.9849C360.6 100.085 362.6 101.285 362.6 101.285C362.6 101.285 365.6 97.7849 371.4 96.9849C377.2 96.1849 380.5 95.7849 380.5 95.7849C380.5 95.7849 388.2 105.585 388.1 109.385C387.9 113.185 389.1 118.285 385.3 120.185C381.5 122.185 374.3 109.785 374.3 109.785C374.3 109.785 363.2 116.885 362.5 116.585C361.7 116.385 354.2 106.585 354.2 106.585Z" fill="#D24135"/>
<path d="M332.4 102.685C332.4 102.685 336.6 108.085 340.6 107.585C344.7 107.085 343.2 102.885 343.2 102.885L338.5 89.0849C338.5 89.0849 334.9 94.1849 336.4 95.6849C337.9 97.2849 335.2 100.285 335.2 100.285C335.2 100.285 333.5 101.085 332.4 102.685Z" fill="#7A221F"/>
<path d="M416 160.785L391.2 144.385C389.5 143.285 389 140.985 390.1 139.285L406.5 114.485C407.6 112.785 409.9 112.285 411.6 113.385L436.4 129.785C438.1 130.885 438.6 133.185 437.5 134.885L421.1 159.785C420 161.485 417.7 161.885 416 160.785Z" fill="#355E00"/>
<path d="M411.8 158.085L387 141.685C385.3 140.585 384.8 138.285 385.9 136.585L402.3 111.785C403.4 110.085 405.7 109.585 407.4 110.685L432.2 127.085C433.9 128.185 434.4 130.485 433.3 132.185L416.9 156.985C415.8 158.685 413.5 159.185 411.8 158.085Z" fill="#98CE24"/>
<path d="M411 157.485L386.2 141.085C384.5 139.985 384 137.685 385.1 135.985L401.5 111.185C402.6 109.485 404.9 108.985 406.6 110.085L431.4 126.485C433.1 127.585 433.6 129.885 432.5 131.585L416.1 156.485C415 158.085 412.7 158.585 411 157.485Z" fill="#355E00"/>
<path d="M406.9 154.885L382.1 138.485C380.4 137.385 379.9 135.085 381 133.385L397.4 108.585C398.5 106.885 400.8 106.385 402.5 107.485L427.3 123.885C429 124.985 429.5 127.285 428.4 128.985L412.1 153.785C411 155.485 408.7 155.985 406.9 154.885Z" fill="#98CE24"/>
<path d="M403.1 152.285L380.7 137.485C379.1 136.385 378.6 134.185 379.7 132.585L396.2 107.485C397.3 105.885 399.5 105.385 401.1 106.485L423.5 121.285C425.1 122.385 425.6 124.585 424.5 126.185L408 151.285C406.9 152.885 404.7 153.385 403.1 152.285Z" fill="#FFFEC7"/>
<path d="M488.1 140.185L459.4 132.385C457.4 131.885 456.3 129.785 456.8 127.785L464.6 99.0849C465.1 97.0849 467.2 95.9849 469.2 96.4849L497.9 104.285C499.9 104.785 501 106.885 500.5 108.885L492.7 137.585C492.2 139.485 490.1 140.685 488.1 140.185Z" fill="#355E00"/>
<path d="M483.2 138.785L454.5 130.985C452.5 130.485 451.4 128.385 451.9 126.385L459.7 97.6849C460.2 95.6849 462.3 94.5849 464.3 95.0849L493 102.885C495 103.385 496.1 105.485 495.6 107.485L487.8 136.185C487.3 138.185 485.2 139.285 483.2 138.785Z" fill="#98CE24"/>
<path d="M482.3 138.585L453.6 130.785C451.6 130.285 450.5 128.185 451 126.185L458.8 97.4849C459.3 95.4849 461.4 94.3849 463.4 94.8849L492.1 102.685C494.1 103.185 495.2 105.285 494.7 107.285L486.9 135.985C486.3 137.885 484.3 139.085 482.3 138.585Z" fill="#355E00"/>
<path d="M477.7 137.285L449 129.485C447 128.985 445.9 126.885 446.4 124.885L454.2 96.1849C454.7 94.1849 456.8 93.0849 458.8 93.5849L487.5 101.385C489.5 101.885 490.6 103.985 490.1 105.985L482.3 134.685C481.7 136.685 479.7 137.785 477.7 137.285Z" fill="#98CE24"/>
<path d="M473.2 136.085L447.3 129.085C445.4 128.585 444.3 126.585 444.8 124.785L452.6 95.7849C453.1 93.8849 455.1 92.7849 456.9 93.2849L482.8 100.285C484.7 100.785 485.8 102.785 485.3 104.585L477.5 133.585C477 135.485 475.1 136.585 473.2 136.085Z" fill="#FFFEC7"/>
<path d="M435.9 111.685L454.4 88.4849C455.7 86.8849 458 86.5849 459.6 87.8849L482.8 106.385C484.4 107.685 484.7 109.985 483.4 111.585L464.9 134.785C463.6 136.385 461.3 136.685 459.7 135.385L436.5 116.885C434.9 115.585 434.6 113.285 435.9 111.685Z" fill="#355E00"/>
<path d="M439 107.685L457.5 84.4849C458.8 82.8849 461.1 82.5849 462.7 83.8849L485.9 102.385C487.5 103.685 487.8 105.985 486.5 107.585L468.1 130.785C466.8 132.385 464.5 132.685 462.9 131.385L439.7 112.885C438.1 111.685 437.8 109.285 439 107.685Z" fill="#98CE24"/>
<path d="M439.6 106.985L458.1 83.7849C459.4 82.1849 461.7 81.8849 463.3 83.1849L486.5 101.685C488.1 102.985 488.4 105.285 487.1 106.885L468.6 130.085C467.3 131.685 465 131.985 463.4 130.685L440.2 112.185C438.7 110.885 438.4 108.485 439.6 106.985Z" fill="#355E00"/>
<path d="M442.6 103.185L461.1 79.9849C462.4 78.3849 464.7 78.0849 466.3 79.3849L489.5 97.8849C491.1 99.1849 491.4 101.485 490.1 103.085L471.6 126.285C470.3 127.885 468 128.185 466.4 126.885L443.2 108.385C441.7 107.085 441.4 104.785 442.6 103.185Z" fill="#98CE24"/>
<path d="M445.6 99.5849L462.3 78.5849C463.5 77.0849 465.7 76.7849 467.3 77.9849L490.8 96.6849C492.3 97.8849 492.6 100.085 491.4 101.685L474.7 122.685C473.5 124.185 471.3 124.485 469.7 123.285L446.1 104.485C444.6 103.285 444.3 101.085 445.6 99.5849Z" fill="#FFFEC7"/>
<path d="M355.6 162.285L365.4 128.585L323.6 115.885L298.2 145.385C298.2 145.385 323.4 178.485 324.5 177.385C325.5 176.285 341.2 164.785 341.2 164.785L355.6 162.285Z" fill="#FFFACC"/>
<path d="M335.1 190.785C331.5 195.985 324 192.885 319.9 187.285C315.7 181.585 317.6 162.685 315.2 159.685C319.1 148.385 325.2 139.885 322 129.785C326.1 128.885 334.3 129.185 334.3 129.185C334.3 129.185 336.7 136.585 339.9 139.185C343.1 141.685 355.3 145.885 355.3 145.885C355.3 145.885 349.3 145.985 346.3 147.385C343.3 148.785 346.1 159.085 343.3 165.885C340.3 172.785 335.1 190.785 335.1 190.785Z" fill="#F3EB92"/>
<path d="M320.5 126.685C320.5 126.685 328.7 129.185 330.5 135.185C332.2 141.085 331.6 149.085 331.6 149.085C331.6 149.085 329.7 139.185 329.2 138.085C328.7 136.985 314.9 132.585 314.9 132.585L320.5 126.685Z" fill="#FAD829"/>
<path d="M343.2 165.885C343.2 165.885 346.7 172.285 350.4 170.585C354.2 168.885 361.5 168.485 363.3 162.585C365.1 156.685 366.6 141.385 366.6 141.385C366.6 141.385 374.6 140.185 371.9 128.885C369.2 117.585 370.4 115.985 366.4 115.785C362.3 115.685 358.3 114.585 355.7 117.685C354 111.885 343.5 106.685 338.9 104.285C334.3 101.885 324.5 105.885 321.9 106.585C319.2 107.285 306.6 111.685 306.3 113.285C306.1 114.985 302.7 123.985 302.7 123.985C302.7 123.985 296.1 119.485 289.5 128.085C282.9 136.685 286 156.385 290.2 158.985C294.4 161.585 302.6 161.785 307.6 159.485C314.4 164.385 320.5 173.185 320.5 173.185C320.5 173.185 315.9 154.685 311.6 149.585C308.4 145.985 308.4 145.985 308.4 145.985C308.4 145.985 314.9 146.985 313.8 144.485C312.6 141.985 311 136.185 311 136.185C311 136.185 312.2 136.585 315.9 134.885C319.6 133.185 319.6 126.585 319.6 126.585C319.6 126.585 332.9 126.985 334.6 124.185C336.3 121.385 336.7 136.285 342.2 137.385C347.7 138.385 357.2 134.985 358.8 129.685C356.7 137.185 358.8 142.785 358.8 142.785C358.8 142.785 356 142.085 354 147.585C352 153.085 351.2 156.885 351.2 156.885L346.1 156.685L343.2 165.885Z" fill="#F8E98B"/>
<path d="M301.2 161.185L304.7 159.985L294.1 158.785C294.1 158.785 292 155.285 293.2 152.585C294.5 149.985 289.7 146.185 292.2 144.985C294.7 143.785 298.2 137.185 298.2 137.185C298.2 137.185 301.9 141.985 305.9 139.685C309.9 137.385 306 129.085 306 129.085C306 129.085 309.6 131.385 312.8 127.485C314.8 124.985 313.8 122.885 312.8 121.585C313.8 121.885 315.5 121.985 318.5 121.285C325.3 119.685 325.6 114.985 325.6 114.985C325.6 114.985 329.4 115.685 331.8 117.685C334.2 119.685 335 114.685 340.9 113.485C346.9 112.185 352.2 125.885 352.2 125.885C352.2 125.885 364.4 122.785 366 121.985C367.7 121.185 368.9 127.985 368.9 127.985C368.9 127.985 371.5 133.985 365.5 137.285C359.5 140.585 364.4 146.885 360.8 149.985C357.2 153.185 361.6 158.185 357.2 160.685C352.8 163.185 351.4 168.885 351.4 168.885L353.1 169.485C356.9 168.285 361.7 167.085 363.1 162.485C364.9 156.585 366.4 141.285 366.4 141.285C366.4 141.285 374.4 140.085 371.7 128.785C369 117.485 370.2 115.885 366.2 115.685C362.1 115.585 358.1 114.485 355.5 117.585C353.8 111.785 343.3 106.585 338.7 104.185C334.1 101.785 324.3 105.785 321.7 106.485C319 107.185 306.4 111.585 306.1 113.185C305.9 114.885 302.5 123.885 302.5 123.885C302.5 123.885 295.9 119.385 289.3 127.985C282.7 136.585 285.8 156.285 290 158.885C292.9 160.785 297.2 161.485 301.2 161.185Z" fill="#FAD829"/>
<path d="M304.7 147.685C304.7 147.685 315.2 153.585 318.1 169.385C321 185.185 319.9 184.985 322.7 188.785C325.5 192.585 326.3 174.685 326.3 174.685L323.5 154.785C323.5 154.785 317.4 143.085 312.8 142.585C308.2 142.085 304.7 147.685 304.7 147.685Z" fill="#FAD829"/>
<path d="M334.2 190.485C334.2 190.485 338.5 173.585 338.6 170.585C338.7 167.485 341.2 164.785 341.2 164.785L337.7 165.385C337.7 165.385 333.5 187.285 334.2 190.485Z" fill="#FFFACC"/>
<path d="M298.1 143.985L267.1 160.485L287.2 199.285L326.1 196.885C326.1 196.885 332.2 155.685 330.6 155.685C329.1 155.685 309.9 152.585 309.9 152.585L298.1 143.985Z" fill="#FFFACC"/>
<path d="M332.8 138.685C339.1 137.685 342.1 145.085 340.9 152.085C339.7 158.985 324.9 170.985 324.4 174.685C313.6 179.885 303.3 181.285 298.2 190.685C294.7 188.385 289.2 182.285 289.2 182.285C289.2 182.285 292.8 175.385 292.4 171.285C292 167.185 286.4 155.585 286.4 155.585C286.4 155.585 290.6 159.785 293.8 160.985C296.9 162.185 302.3 152.985 309.2 150.185C316.2 147.485 332.8 138.685 332.8 138.685Z" fill="#F3EB92"/>
<path d="M297.1 193.885C297.1 193.885 293.2 186.185 296.2 180.785C299.2 175.485 305.4 170.285 305.4 170.285C305.4 170.285 299.6 178.485 299.2 179.685C298.8 180.885 305.3 193.785 305.3 193.785L297.1 193.885Z" fill="#FAD829"/>
<path d="M309.3 150.285C309.3 150.285 311.4 143.285 307.6 141.785C303.7 140.285 298.3 135.385 292.9 138.085C287.4 140.885 275.5 150.485 275.5 150.485C275.5 150.485 269.1 145.585 262.8 155.485C256.6 165.385 254.6 165.585 257.3 168.585C260.1 171.585 262.1 175.285 266.1 174.885C263.2 180.085 266.7 191.285 268.2 196.285C269.7 201.285 279.4 205.485 281.8 206.885C284.2 208.285 296.1 214.285 297.5 213.285C298.9 212.285 307.7 208.385 307.7 208.385C307.7 208.385 309.1 216.285 319.9 214.985C330.7 213.685 342.6 197.685 341.5 192.885C340.4 188.085 334.9 181.985 329.7 180.085C328.5 171.785 330.5 161.285 330.5 161.285C330.5 161.285 320.4 177.485 319.8 184.185C319.4 188.985 319.4 188.985 319.4 188.985C319.4 188.985 315.6 183.585 314.6 186.185C313.6 188.785 310.7 193.985 310.7 193.985C310.7 193.985 310.1 192.785 306.3 191.385C302.5 189.885 297.8 194.485 297.8 194.485C297.8 194.485 288.8 184.685 285.6 185.385C282.4 186.085 292.8 175.385 289.7 170.785C286.6 166.185 277.5 161.685 272.6 164.285C279.4 160.585 281.9 155.085 281.9 155.085C281.9 155.085 283.4 157.585 288.7 155.185C294 152.785 297.3 150.685 297.3 150.685L300.7 154.385L309.3 150.285Z" fill="#F8E98B"/>
<path d="M335.3 183.585L332 181.885L338.6 190.285C338.6 190.285 337.6 194.285 334.8 195.185C332 196.085 332.7 202.185 330.1 201.185C327.5 200.185 320.3 202.385 320.3 202.385C320.3 202.385 321.2 196.385 316.7 195.185C312.3 193.985 309 202.585 309 202.585C309 202.585 308.1 198.385 303.1 198.885C299.9 199.185 299.1 201.385 298.9 202.985C298.5 202.085 297.4 200.785 294.7 199.085C288.8 195.385 285.2 198.385 285.2 198.385C285.2 198.385 283.1 195.085 282.7 192.085C282.3 189.085 278.3 191.885 273.3 188.485C268.2 185.085 274.3 171.685 274.3 171.685C274.3 171.685 263.6 165.185 261.9 164.485C260.2 163.785 264.2 158.185 264.2 158.185C264.2 158.185 266.7 152.085 273.2 154.085C279.8 156.085 280.8 148.185 285.6 148.585C290.4 148.985 290.9 142.285 295.8 143.685C300.7 145.085 305.7 142.085 305.7 142.085L305 140.485C301.5 138.585 297.3 135.985 293 138.185C287.5 140.985 275.6 150.585 275.6 150.585C275.6 150.585 269.2 145.685 262.9 155.585C256.6 165.485 254.7 165.685 257.4 168.685C260.2 171.685 262.2 175.385 266.2 174.985C263.3 180.185 266.8 191.385 268.3 196.385C269.8 201.385 279.5 205.585 281.9 206.985C284.3 208.385 296.2 214.385 297.6 213.385C299 212.385 307.8 208.485 307.8 208.485C307.8 208.485 309.2 216.385 320 215.085C330.7 213.785 342.7 197.785 341.6 192.985C340.8 189.885 338.3 186.285 335.3 183.585Z" fill="#FAD829"/>
<path d="M323.2 190.485C323.2 190.485 320.1 178.885 329.3 165.685C338.6 152.585 339.2 153.485 339.9 148.885C340.6 144.285 327.3 156.185 327.3 156.185L315.1 172.185C315.1 172.185 311 184.685 313.8 188.385C316.6 191.985 323.2 190.485 323.2 190.485Z" fill="#FAD829"/>
<path d="M333.2 139.585C333.2 139.585 318.2 148.285 315.9 150.285C313.6 152.385 309.9 152.385 309.9 152.385L312.8 154.485C312.8 154.485 331.4 142.285 333.2 139.585Z" fill="#FFFACC"/>
<path d="M367.4 318.085L373.6 344.185C373.6 344.185 398.9 351.985 400 347.885C401.1 343.785 400.5 337.885 397.8 330.985C395.1 324.085 390.9 316.585 390.9 316.585C390.9 316.585 379.4 319.385 367.4 318.085Z" fill="#F1AF1A"/>
<path d="M367.4 318.085C367.4 318.085 366.3 328.785 367.6 334.985C368.9 341.185 373.7 360.385 373.7 360.385L373.6 344.185L367.4 318.085Z" fill="#CE6102"/>
<path d="M373.7 360.385C373.7 360.385 391.4 367.185 393.6 364.785C395.8 362.385 400.3 351.985 400 347.885C399.8 343.785 373.6 344.185 373.6 344.185L373.7 360.385Z" fill="#D77006"/>
<path d="M425.4 407.085L431.6 433.185C431.6 433.185 456.9 440.985 458 436.885C459.1 432.785 458.5 426.885 455.8 419.985C453.1 413.085 448.9 405.585 448.9 405.585C448.9 405.585 437.4 408.385 425.4 407.085Z" fill="#FFB611"/>
<path d="M425.4 407.085C425.4 407.085 424.3 417.785 425.6 423.985C426.9 430.185 431.7 449.385 431.7 449.385L431.6 433.185L425.4 407.085Z" fill="#C25D05"/>
<path d="M431.7 449.385C431.7 449.385 449.4 456.185 451.6 453.785C453.8 451.385 458.3 440.985 458 436.885C457.8 432.785 431.6 433.185 431.6 433.185L431.7 449.385Z" fill="#DC7105"/>
<path d="M462.4 399.185L476.4 379.385L476.1 387.685L465 403.485L462.4 399.185Z" fill="#BE5C02"/>
<path d="M517.8 403.085C513.3 400.185 509.2 398.585 507.3 397.285C505.4 395.985 480.9 376.885 476.4 379.285C475.5 384.785 476.2 387.585 476.2 387.585C476.2 387.585 493.2 394.585 502.5 401.885C511.8 409.185 523 413.785 523 413.785C519.8 411.385 517.8 403.085 517.8 403.085Z" fill="#FFC20B"/>
<path d="M465 403.485C465 403.485 479.8 410.185 483.7 412.485C487.6 414.785 500.8 429.385 504.8 430.185C508.7 430.985 513.7 422.085 513.7 422.085L523 413.785L496.1 396.585C496.1 396.585 478.5 386.385 476.3 387.585C473.9 388.885 465 403.485 465 403.485Z" fill="#D56900"/>
<path d="M540.7 403.985C536.6 402.185 535.8 391.885 539.4 383.685C543 375.485 545.1 367.585 557.1 373.085C561.2 374.985 568.2 385.885 564.6 394.085C558.9 407.085 544.8 405.785 540.7 403.985Z" fill="#88CA1D"/>
<path d="M578.2 347.985C578.9 346.285 565.9 335.185 561.3 337.685C556.6 340.285 552.7 342.585 559.7 349.085C566.6 355.585 575.9 357.985 578.7 354.585C581.3 351.285 578.2 347.985 578.2 347.985Z" fill="#CBFB42"/>
<path d="M571.8 350.685C571.8 350.685 565.5 348.385 561.8 350.985C567.4 355.285 574 357.085 577.2 355.585L571.8 350.685Z" fill="#6A9A04"/>
<path d="M552.7 355.585C544.2 357.085 542.3 355.885 538.4 352.185C534.5 348.385 536.3 340.685 539.3 338.885C542.3 337.085 560.3 336.085 562.3 341.285C564.5 346.385 567.7 352.885 552.7 355.585Z" fill="#CBFB42"/>
<path d="M563.8 376.785C567.6 374.485 575.1 374.285 579.7 381.885C584.4 389.485 592.9 398.785 581.5 405.485C577.6 407.785 570.5 405.685 565.8 397.985C558.4 385.885 559.9 379.085 563.8 376.785Z" fill="#99DA2F"/>
<path d="M603.3 385.185C598.9 386.385 591.9 378.785 589.6 370.085C587.3 361.485 584 353.985 596.8 350.785C601.2 349.685 613.4 353.885 615.8 362.485C619.5 376.285 607.6 383.985 603.3 385.185Z" fill="#CBFB42"/>
<path d="M593.1 355.285C594 353.685 580.7 342.285 575.8 344.185C570.9 346.185 568.4 346.785 574.5 354.085C580.6 361.385 589.5 364.885 592.7 361.885C595.8 358.885 593.1 355.285 593.1 355.285Z" fill="#CBFB42"/>
<path d="M572.2 354.885C580.7 353.285 586.8 355.785 590.8 359.485C594.8 363.185 593 370.885 589.9 372.785C586.9 374.685 560.9 377.985 555 365.985C553.4 362.685 557 357.685 572.2 354.885Z" fill="#88CA1D"/>
<path d="M572.6 325.285C573.3 323.585 560.3 312.485 555.7 314.985C551 317.585 547.1 319.885 554.1 326.385C561.1 332.885 570.3 335.285 573.1 331.885C575.7 328.585 572.6 325.285 572.6 325.285Z" fill="#6A9A04"/>
<path d="M566.2 327.985C566.2 327.985 559.9 325.685 556.2 328.285C561.8 332.585 568.4 334.385 571.6 332.885L566.2 327.985Z" fill="#6A9A04"/>
<path d="M547.1 332.885C538.6 334.385 536.7 333.185 532.8 329.485C528.9 325.685 530.7 317.985 533.7 316.185C536.7 314.385 554.7 313.385 556.7 318.585C558.9 323.685 562.1 330.185 547.1 332.885Z" fill="#6A9A04"/>
<path d="M558.2 354.085C562 351.785 569.5 351.585 574.1 359.185C578.8 366.785 587.3 376.085 575.9 382.785C572 385.085 564.9 382.985 560.2 375.285C552.8 363.185 554.3 356.385 558.2 354.085Z" fill="#6A9A04"/>
<path d="M597.7 362.485C593.3 363.685 586.3 356.085 584 347.385C581.7 338.785 578.4 331.285 591.2 328.085C595.6 326.985 607.8 331.185 610.2 339.785C613.9 353.585 602 361.285 597.7 362.485Z" fill="#6A9A04"/>
<path d="M587.5 332.585C588.4 330.985 575.1 319.585 570.2 321.485C565.3 323.485 562.8 324.085 568.9 331.385C575 338.685 583.9 342.185 587.1 339.185C590.2 336.185 587.5 332.585 587.5 332.585Z" fill="#6A9A04"/>
<path d="M566.6 332.185C575.1 330.585 581.2 333.085 585.2 336.785C589.2 340.485 587.4 348.185 584.3 350.085C581.3 351.985 555.3 355.285 549.4 343.285C547.8 339.985 551.4 334.985 566.6 332.185Z" fill="#6A9A04"/>
<path d="M536.5 367.285C535.5 368.085 540.1 379.385 543.9 379.285C547.7 379.185 550.9 378.985 548.6 372.585C546.4 366.185 541.2 361.685 538.4 362.985C535.6 364.185 536.5 367.285 536.5 367.285Z" fill="#6A9A04"/>
<path d="M541.4 367.685C541.4 367.685 544.7 371.185 547.8 370.685C545.6 366.085 542.1 362.885 539.5 362.785L541.4 367.685Z" fill="#6A9A04"/>
<path d="M555 370.785C560.8 372.585 561.7 373.985 562.9 377.585C564.1 381.185 560.5 385.485 558 385.685C555.5 385.885 543.9 380.585 544.2 376.685C544.6 372.785 544.7 367.585 555 370.785Z" fill="#6A9A04"/>
<path d="M554.9 353.785C551.7 353.985 547 351.685 546.5 345.385C546 339.085 543.7 330.385 553 329.885C556.2 329.685 560 333.385 560.5 339.685C561.2 349.785 558.1 353.585 554.9 353.785Z" fill="#6A9A04"/>
<path d="M532.7 335.685C535.8 336.385 537.8 343.385 536.5 349.585C535.2 355.785 534.8 361.585 525.7 359.485C522.6 358.785 516.2 352.185 517.5 345.985C519.6 336.085 529.6 335.085 532.7 335.685Z" fill="#6A9A04"/>
<path d="M529.4 357.885C528.3 358.585 533 370.085 536.7 370.485C540.4 370.885 542.2 371.185 540.7 364.685C539.2 358.085 534.7 352.985 531.8 353.885C528.9 354.685 529.4 357.885 529.4 357.885Z" fill="#6A9A04"/>
<path d="M542.5 364.885C536.6 363.085 533.6 359.585 532.3 355.985C531 352.385 534.6 348.085 537.1 347.885C539.6 347.685 557.1 353.985 556.9 363.485C556.9 366.085 553 368.085 542.5 364.885Z" fill="#88CA1D"/>
<path d="M548.2 323.385C547.9 321.585 531 318.885 528.4 323.585C525.8 328.185 523.7 332.285 533 334.185C542.3 336.085 551.5 333.185 552 328.885C552.6 324.485 548.2 323.385 548.2 323.385Z" fill="#88CA1D"/>
<path d="M544.2 328.985C544.2 328.985 537.6 330.385 535.9 334.485C543 335.185 549.5 333.285 551.4 330.285L544.2 328.985Z" fill="#6A9A04"/>
<path d="M530.5 343.185C524.1 348.885 521.8 348.985 516.5 347.785C511.2 346.685 508.7 339.085 510.3 335.985C511.9 332.885 526.7 322.585 531.1 325.885C535.7 329.185 541.9 333.085 530.5 343.185Z" fill="#CBFB42"/>
<path d="M551.1 355.385C553.1 351.385 559.4 347.385 567.3 351.385C575.3 355.385 587.5 358.885 581.3 370.485C579.2 374.485 572 376.385 564 372.385C551.4 365.985 549.1 359.485 551.1 355.385Z" fill="#99DA2F"/>
<path d="M589.1 341.785C586 345.085 576 342.285 569.5 336.185C563 330.085 556.3 325.485 565.4 315.985C568.5 312.685 581.2 309.885 587.7 315.985C598.2 325.685 592.2 338.485 589.1 341.785Z" fill="#CBFB42"/>
<path d="M564.7 321.685C564.6 319.885 547.3 317.085 544.1 321.385C540.9 325.685 539.2 327.485 548.2 330.485C557.2 333.485 566.7 331.785 567.7 327.585C569 323.385 564.7 321.685 564.7 321.685Z" fill="#9CC820"/>
<path d="M546.7 332.385C553.1 326.585 559.6 325.385 564.9 326.485C570.2 327.585 572.8 335.085 571.2 338.185C569.6 341.385 549.3 357.885 537.9 350.785C534.9 348.985 535.3 342.785 546.7 332.385Z" fill="#CBFB42"/>
<path d="M515.8 340.585L495.1 357.685C495.1 357.685 515.6 404.585 521.2 405.485C526.8 406.485 532.4 404.185 536.6 397.685C540.8 391.185 544.1 382.085 544.1 382.085C544.1 382.085 528 362.285 515.8 340.585Z" fill="#ECB800"/>
<path d="M515.8 340.585C515.8 340.585 503.2 341.185 498.1 344.885C493 348.585 477.9 361.585 477.9 361.585L495 357.685L515.8 340.585Z" fill="#CE6102"/>
<path d="M477.9 361.585C477.9 361.585 490.7 394.585 495.8 397.985C500.9 401.385 517 406.885 521.1 405.485C525.2 404.085 495 357.685 495 357.685L477.9 361.585Z" fill="#D77006"/>
<path d="M472.8 338.585L452.1 355.685C452.1 355.685 472.6 402.585 478.2 403.485C483.8 404.485 489.4 402.185 493.6 395.685C497.8 389.185 501.1 380.085 501.1 380.085C501.1 380.085 485 360.285 472.8 338.585Z" fill="#ECB800"/>
<path d="M472.8 338.585C472.8 338.585 460.2 339.185 455.1 342.885C450 346.585 434.9 359.585 434.9 359.585L452 355.685L472.8 338.585Z" fill="#CE6102"/>
<path d="M434.9 359.585C434.9 359.585 447.7 392.585 452.8 395.985C457.9 399.385 474 404.885 478.1 403.485C482.2 402.085 452 355.685 452 355.685L434.9 359.585Z" fill="#D77006"/>
<path d="M444.8 368.585L424.1 385.685C424.1 385.685 444.6 432.585 450.2 433.485C455.8 434.385 461.4 432.185 465.6 425.685C469.8 419.185 473.1 410.085 473.1 410.085C473.1 410.085 457 390.285 444.8 368.585Z" fill="#E3A312"/>
<path d="M444.8 368.585C444.8 368.585 432.2 369.185 427.1 372.885C422 376.585 406.9 389.585 406.9 389.585L424 385.685L444.8 368.585Z" fill="#C64700"/>
<path d="M406.9 389.585C406.9 389.585 419.7 422.585 424.8 425.985C429.9 429.385 446 434.885 450.1 433.485C454.2 432.085 424 385.685 424 385.685L406.9 389.585Z" fill="#DA6E00"/>
<path d="M457.8 387.685L445.1 411.285C445.1 411.285 481.8 446.985 487.4 445.685C493 444.485 497.3 440.185 498.7 432.585C500.2 424.985 499.7 415.285 499.7 415.285C499.7 415.285 477.4 403.185 457.8 387.685Z" fill="#EBA100"/>
<path d="M457.8 387.685C457.8 387.685 446.3 392.985 443 398.385C439.6 403.785 430.6 421.485 430.6 421.485L445 411.485L457.8 387.685Z" fill="#CE6102"/>
<path d="M430.7 421.385C430.7 421.385 455.1 447.085 461.1 448.385C467.1 449.585 484.1 448.685 487.3 445.785C490.6 442.985 445 411.385 445 411.385L430.7 421.385Z" fill="#DB7715"/>
<path d="M396.4 363.185L410.4 343.385L410.1 351.685L399 367.485L396.4 363.185Z" fill="#BB4604"/>
<path d="M451.8 367.085C447.3 364.185 443.2 362.585 441.3 361.285C439.4 359.985 414.9 340.885 410.4 343.285C409.5 348.785 410.2 351.585 410.2 351.585C410.2 351.585 427.2 358.585 436.5 365.885C445.8 373.185 457 377.785 457 377.785C453.8 375.385 451.8 367.085 451.8 367.085Z" fill="#EBB104"/>
<path d="M399 367.485C399 367.485 413.8 374.185 417.7 376.485C421.6 378.785 434.8 393.385 438.8 394.185C442.7 394.985 447.7 386.085 447.7 386.085L457 377.785L430.1 360.585C430.1 360.585 412.5 350.385 410.3 351.585C407.9 352.885 399 367.485 399 367.485Z" fill="#B44100"/>
<path d="M422.8 351.585L402.1 368.685C402.1 368.685 422.6 415.585 428.2 416.485C433.8 417.485 439.4 415.185 443.6 408.685C447.8 402.185 451.1 393.085 451.1 393.085C451.1 393.085 435 373.285 422.8 351.585Z" fill="#ECB800"/>
<path d="M422.8 351.585C422.8 351.585 410.2 352.185 405.1 355.885C400 359.585 384.9 372.585 384.9 372.585L402 368.685L422.8 351.585Z" fill="#CE6102"/>
<path d="M384.9 372.585C384.9 372.585 397.7 405.585 402.8 408.985C407.9 412.385 424 417.885 428.1 416.485C432.2 415.085 402 368.685 402 368.685L384.9 372.585Z" fill="#D77006"/>
<path d="M601.5 337.485C603.1 336.585 599.9 319.785 594.7 318.885C589.5 317.985 585 317.385 586.3 326.785C587.6 336.185 593.4 343.885 597.7 342.985C601.9 341.985 601.5 337.485 601.5 337.485Z" fill="#CBFB42"/>
<path d="M594.9 335.585C594.9 335.585 591.4 329.885 586.9 329.685C588.6 336.585 592.6 342.085 596.1 342.885L594.9 335.585Z" fill="#6A9A04"/>
<path d="M576.9 327.485C569.4 323.385 568.6 321.285 567.9 315.885C567.2 310.485 573.4 305.685 576.9 306.085C580.4 306.485 595 317.085 593.4 322.285C591.8 327.585 590.3 334.785 576.9 327.485Z" fill="#CBFB42"/>
<path d="M572.3 350.885C576.8 351.485 582.7 355.985 581.5 364.885C580.4 373.785 581.2 386.385 568.2 384.485C563.7 383.785 559.5 377.785 560.6 368.885C562.4 354.685 567.8 350.385 572.3 350.885Z" fill="#CBFB42"/>
<path d="M597.9 382.185C593.8 380.385 593 370.085 596.6 361.885C600.2 353.685 602.3 345.785 614.3 351.285C618.4 353.185 625.4 364.085 621.8 372.285C616.1 385.285 602 383.985 597.9 382.185Z" fill="#99DA2F"/>
<path d="M608.7 352.485C610.4 351.785 607.2 334.585 602.1 332.985C597 331.385 594.7 330.485 594.9 339.985C595.1 349.485 599.9 357.785 604.2 357.385C608.5 356.985 608.7 352.485 608.7 352.485Z" fill="#CBFB42"/>
<path d="M592.5 339.085C600.1 343.185 603.4 348.885 604.2 354.285C605 359.685 598.8 364.585 595.2 364.085C591.7 363.685 569.3 350.085 572.2 336.885C573 333.485 578.9 331.785 592.5 339.085Z" fill="#99DA2F"/>
<path d="M611.3 316.285C612.9 315.385 609.7 298.585 604.5 297.685C599.3 296.785 594.8 296.185 596.1 305.585C597.4 314.985 603.2 322.685 607.5 321.785C611.7 320.685 611.3 316.285 611.3 316.285Z" fill="#6A9A04"/>
<path d="M604.7 314.385C604.7 314.385 601.2 308.685 596.7 308.485C598.4 315.385 602.4 320.885 605.9 321.685L604.7 314.385Z" fill="#6A9A04"/>
<path d="M586.7 306.185C579.2 302.085 578.4 299.985 577.7 294.585C577 289.185 583.2 284.385 586.7 284.785C590.2 285.185 604.8 295.785 603.2 300.985C601.6 306.385 600.1 313.485 586.7 306.185Z" fill="#6A9A04"/>
<path d="M582.1 329.685C586.6 330.285 592.5 334.785 591.3 343.685C590.2 352.585 591 365.185 578 363.285C573.5 362.585 569.3 356.585 570.4 347.685C572.2 333.485 577.6 329.185 582.1 329.685Z" fill="#6A9A04"/>
<path d="M607.7 360.985C603.6 359.185 602.8 348.885 606.4 340.685C610 332.485 612.1 324.585 624.1 330.085C628.2 331.985 635.2 342.885 631.6 351.085C625.9 364.085 611.8 362.785 607.7 360.985Z" fill="#88CA1D"/>
<path d="M618.5 331.185C620.2 330.485 617 313.285 611.9 311.685C606.8 310.085 604.5 309.185 604.7 318.685C604.9 328.185 609.7 336.485 614 336.085C618.3 335.785 618.5 331.185 618.5 331.185Z" fill="#6A9A04"/>
<path d="M602.3 317.885C609.9 321.985 613.2 327.685 614 333.085C614.8 338.485 608.6 343.385 605 342.885C601.5 342.485 579.1 328.885 582 315.685C582.8 312.185 588.7 310.585 602.3 317.885Z" fill="#6A9A04"/>
<path d="M556.9 326.485C555.6 326.485 552.1 338.185 555.2 340.385C558.2 342.685 560.8 344.485 563.1 338.085C565.3 331.685 564.1 324.985 561.2 324.185C558.1 323.485 556.9 326.485 556.9 326.485Z" fill="#6A9A04"/>
<path d="M560.5 329.785C560.5 329.785 560.9 334.585 563.6 336.085C564.8 331.185 564 326.385 562.1 324.785L560.5 329.785Z" fill="#6A9A04"/>
<path d="M568.9 341.285C572.7 346.785 572.5 348.585 571 352.585C569.6 356.585 563.5 357.685 561.2 356.185C558.9 354.685 552.6 342.185 555.6 339.085C558.6 335.885 562.2 331.485 568.9 341.285Z" fill="#99DA2F"/>
<path d="M579.7 327.385C577.1 325.585 574.8 320.785 578.4 315.585C582 310.385 585.5 302.085 593.1 307.585C595.7 309.485 596.4 314.685 592.8 319.885C587.1 328.285 582.3 329.285 579.7 327.385Z" fill="#6A9A04"/>
<path d="M573.7 299.485C575.7 301.985 572.8 308.685 567.9 312.685C563 316.685 559.1 320.985 553.3 313.685C551.3 311.185 550.5 301.985 555.4 297.985C563.2 291.585 571.7 296.985 573.7 299.485Z" fill="#88CA1D"/>
<path d="M557.2 314.685C555.9 314.585 552.4 326.485 555 329.085C557.6 331.685 558.8 333.085 561.8 326.985C564.8 320.885 564.4 314.085 561.6 312.985C558.8 311.885 557.2 314.685 557.2 314.685Z" fill="#6A9A04"/>
<path d="M563.1 328.385C559.6 323.285 559.4 318.685 560.7 315.085C561.9 311.485 567.5 310.385 569.5 311.785C571.6 313.185 581.3 328.985 575.2 336.385C573.6 338.285 569.3 337.385 563.1 328.385Z" fill="#88CA1D"/>
<path d="M593.5 299.485C594.4 297.885 582.9 285.285 577.9 287.185C573 289.185 568.8 290.985 574.9 298.285C581 305.585 590 309.085 593.1 306.085C596.2 303.085 593.5 299.485 593.5 299.485Z" fill="#99DA2F"/>
<path d="M586.8 301.385C586.8 301.385 580.8 298.385 576.9 300.485C582 305.485 588.3 307.985 591.7 306.885L586.8 301.385Z" fill="#6A9A04"/>
<path d="M567.3 303.985C558.7 304.485 556.9 303.085 553.5 298.885C550.1 294.685 552.8 287.285 556 285.785C559.2 284.285 577.2 285.585 578.6 290.885C580.1 296.285 582.5 303.085 567.3 303.985Z" fill="#CBFB42"/>
<path d="M575.7 326.385C579.8 324.485 587.2 325.285 590.9 333.385C594.6 341.485 602 351.785 589.9 356.985C585.7 358.785 579 355.785 575.2 347.685C569.3 334.785 571.7 328.185 575.7 326.385Z" fill="#CBFB42"/>
<path d="M613.9 339.485C609.4 340.185 603.4 331.785 602.1 322.885C600.8 313.985 598.5 306.285 611.6 304.585C616.1 303.985 627.7 309.685 629.1 318.485C631.1 332.485 618.4 338.785 613.9 339.485Z" fill="#9CC820"/>
<path d="M607.5 308.485C608.6 307.085 596.8 294.085 591.6 295.385C586.5 296.685 584 297.085 589.2 305.085C594.3 313.085 602.8 317.585 606.3 314.985C609.7 312.485 607.5 308.485 607.5 308.485Z" fill="#99DA2F"/>
<path d="M586.7 305.685C595.4 305.185 601.1 308.285 604.6 312.485C608.1 316.585 605.4 324.085 602.1 325.585C598.9 327.085 572.7 327.285 568.2 314.585C567.1 311.085 571.3 306.585 586.7 305.685Z" fill="#CBFB42"/>
<defs>
<linearGradient id="paint0_linear_6689_244924" x1="126.603" y1="205.003" x2="168.748" y2="173.502" gradientUnits="userSpaceOnUse">
<stop stop-color="#D6BFA6"/>
<stop offset="1" stop-color="#FFF8ED"/>
</linearGradient>
<linearGradient id="paint1_linear_6689_244924" x1="143.315" y1="222.797" x2="181.081" y2="194.569" gradientUnits="userSpaceOnUse">
<stop stop-color="#EDAA18"/>
<stop offset="1" stop-color="#FFE334"/>
</linearGradient>
<linearGradient id="paint2_linear_6689_244924" x1="140.308" y1="223.339" x2="182.452" y2="191.838" gradientUnits="userSpaceOnUse">
<stop stop-color="#E8A920"/>
<stop offset="1" stop-color="#FFE336"/>
</linearGradient>
<linearGradient id="paint3_linear_6689_244924" x1="196.249" y1="321.01" x2="259.74" y2="273.554" gradientUnits="userSpaceOnUse">
<stop stop-color="#E3A419"/>
<stop offset="1" stop-color="#FFE230"/>
</linearGradient>
<linearGradient id="paint4_linear_6689_244924" x1="258.227" y1="403.931" x2="321.718" y2="356.476" gradientUnits="userSpaceOnUse">
<stop stop-color="#EDAB1B"/>
<stop offset="1" stop-color="#FFE338"/>
</linearGradient>
<linearGradient id="paint5_linear_6689_244924" x1="116.197" y1="191.081" x2="158.342" y2="159.58" gradientUnits="userSpaceOnUse">
<stop stop-color="#D6BFA6"/>
<stop offset="1" stop-color="#FFF8ED"/>
</linearGradient>
<linearGradient id="paint6_linear_6689_244924" x1="376.372" y1="292.142" x2="346.388" y2="307.901" gradientUnits="userSpaceOnUse">
<stop stop-color="#725045"/>
<stop offset="1" stop-color="#140E0E"/>
</linearGradient>
<linearGradient id="paint7_linear_6689_244924" x1="390.968" y1="254.734" x2="384.774" y2="263.846" gradientUnits="userSpaceOnUse">
<stop stop-color="#725045"/>
<stop offset="1" stop-color="#140E0E"/>
</linearGradient>
<linearGradient id="paint8_linear_6689_244924" x1="433.736" y1="282.32" x2="424.012" y2="289.452" gradientUnits="userSpaceOnUse">
<stop stop-color="#725045"/>
<stop offset="1" stop-color="#140E0E"/>
</linearGradient>
<linearGradient id="paint9_linear_6689_244924" x1="409.878" y1="278.069" x2="390.682" y2="293.809" gradientUnits="userSpaceOnUse">
<stop stop-color="#725045"/>
<stop offset="1" stop-color="#140E0E"/>
</linearGradient>
</defs>
</svg>
